<svg width="24" height="24" viewBox="0 0 24 24" fill="none" xmlns="http://www.w3.org/2000/svg">
<path d="M12 19.5C9.91667 19.5 8.14583 18.7708 6.6875 17.3125C5.22917 15.8542 4.5 14.0833 4.5 12C4.5 10.125 5.07639 8.52083 6.22917 7.1875C7.38194 5.84028 8.86111 5 10.6667 4.66667C11.1944 4.56944 11.5764 4.66667 11.8125 4.95833C12.0625 5.23611 12.0486 5.63889 11.7708 6.16667C11.6042 6.48611 11.4722 6.81944 11.375 7.16667C11.2917 7.51389 11.25 7.875 11.25 8.25C11.25 9.5 11.6875 10.5625 12.5625 11.4375C13.4375 12.3125 14.5 12.75 15.75 12.75C16.125 12.75 16.4861 12.7083 16.8333 12.625C17.1806 12.5278 17.5139 12.3958 17.8333 12.2292C18.375 11.9514 18.7847 11.9236 19.0625 12.1458C19.3542 12.3681 19.4514 12.7431 19.3542 13.2708C19.0486 15.0486 18.2292 16.5347 16.8958 17.7292C15.5764 18.9097 13.9444 19.5 12 19.5ZM12 17.75C13.1944 17.75 14.2569 17.4375 15.1875 16.8125C16.1319 16.1875 16.8264 15.3542 17.2708 14.3125C17.0208 14.3819 16.7708 14.4306 16.5208 14.4583C16.2708 14.4861 16.0139 14.5 15.75 14.5C14.0139 14.5 12.5347 13.8958 11.3125 12.6875C10.1042 11.4653 9.5 9.98611 9.5 8.25C9.5 7.98611 9.51389 7.72917 9.54167 7.47917C9.56944 7.22917 9.61806 6.97917 9.6875 6.72917C8.64583 7.17361 7.8125 7.86805 7.1875 8.8125C6.5625 9.74306 6.25 10.8056 6.25 12C6.25 13.5972 6.80556 14.9583 7.91667 16.0833C9.04167 17.1944 10.4028 17.75 12 17.75Z" fill="currentColor"/>
</svg>
