<svg width="40" height="40" viewBox="0 0 40 40" fill="none" xmlns="http://www.w3.org/2000/svg">
<path d="M13.025 21.3125L20.9375 29.225C21.2125 29.5 21.3375 29.8125 21.3125 30.1625C21.3125 30.5125 21.1875 30.8125 20.9375 31.0625C20.6625 31.3125 20.35 31.45 20 31.475C19.65 31.475 19.35 31.3375 19.1 31.0625L8.9375 20.9C8.7875 20.775 8.6875 20.6375 8.6375 20.4875C8.5875 20.3375 8.5625 20.175 8.5625 20C8.5625 19.825 8.5875 19.6625 8.6375 19.5125C8.6875 19.3625 8.7875 19.2125 8.9375 19.0625L19.1 8.9C19.35 8.65 19.65 8.525 20 8.525C20.35 8.525 20.6625 8.65 20.9375 8.9C21.1875 9.175 21.3125 9.4875 21.3125 9.8375C21.3125 10.1875 21.1875 10.5 20.9375 10.775L13.025 18.6875H30.6875C31.0625 18.6875 31.375 18.8125 31.625 19.0625C31.875 19.3125 32 19.625 32 20C32 20.375 31.875 20.6875 31.625 20.9375C31.375 21.1875 31.0625 21.3125 30.6875 21.3125H13.025Z" fill="currentColor"/>
</svg>
