<svg width="24" height="30" viewBox="0 0 24 30" fill="none" xmlns="http://www.w3.org/2000/svg">
<path d="M1.3125 25.5C0.937501 25.5 0.625 25.375 0.375 25.125C0.125 24.875 1.78814e-07 24.5625 1.78814e-07 24.1875C1.78814e-07 23.8125 0.125 23.5 0.375 23.25C0.625 23 0.937501 22.875 1.3125 22.875H3V11.925C3 9.825 3.625 7.9625 4.875 6.3375C6.125 4.6875 7.75 3.6375 9.75 3.1875V2.25C9.75 1.625 9.9625 1.1 10.3875 0.674998C10.8375 0.224999 11.375 -7.15256e-07 12 -7.15256e-07C12.625 -7.15256e-07 13.15 0.224999 13.575 0.674998C14.025 1.1 14.25 1.625 14.25 2.25V3.1875C16.275 3.6375 17.9 4.6875 19.125 6.3375C20.375 7.9625 21 9.825 21 11.925V22.875H22.6875C23.0625 22.875 23.375 23 23.625 23.25C23.875 23.5 24 23.8125 24 24.1875C24 24.5625 23.875 24.875 23.625 25.125C23.375 25.375 23.0625 25.5 22.6875 25.5H1.3125ZM12 30C11.175 30 10.4625 29.7125 9.8625 29.1375C9.2875 28.5375 9 27.825 9 27H15C15 27.825 14.7 28.5375 14.1 29.1375C13.525 29.7125 12.825 30 12 30ZM5.625 22.875H18.375V11.925C18.375 10.15 17.75 8.65 16.5 7.425C15.275 6.175 13.775 5.55 12 5.55C10.25 5.55 8.75 6.175 7.5 7.425C6.25 8.65 5.625 10.15 5.625 11.925V22.875Z" fill="currentColor"/>
</svg>
