<svg width="24" height="24" viewBox="0 0 24 24" fill="none" xmlns="http://www.w3.org/2000/svg">
<path d="M7.83333 14.3125C8.47222 14.3125 9.01389 14.0903 9.45833 13.6458C9.91667 13.1875 10.1458 12.6389 10.1458 12C10.1458 11.3611 9.91667 10.8194 9.45833 10.375C9.01389 9.91667 8.47222 9.6875 7.83333 9.6875C7.19444 9.6875 6.64583 9.91667 6.1875 10.375C5.74306 10.8194 5.52083 11.3611 5.52083 12C5.52083 12.6389 5.74306 13.1875 6.1875 13.6458C6.64583 14.0903 7.19444 14.3125 7.83333 14.3125ZM7.83333 17C6.44444 17 5.26389 16.5139 4.29167 15.5417C3.31944 14.5694 2.83333 13.3889 2.83333 12C2.83333 10.6111 3.31944 9.43056 4.29167 8.45833C5.26389 7.48611 6.44444 7 7.83333 7C8.90278 7 9.86806 7.3125 10.7292 7.9375C11.6042 8.5625 12.2014 9.35417 12.5208 10.3125H19.1875C19.2986 10.3125 19.4028 10.3333 19.5 10.375C19.6111 10.4167 19.7083 10.4792 19.7917 10.5625L20.5625 11.3333C20.6458 11.4167 20.7083 11.5139 20.75 11.625C20.8056 11.7361 20.8333 11.8472 20.8333 11.9583C20.8333 12.0694 20.8056 12.1806 20.75 12.2917C20.7083 12.4028 20.6458 12.5 20.5625 12.5833L18.4583 14.7083C18.375 14.7917 18.2778 14.8542 18.1667 14.8958C18.0556 14.9375 17.9444 14.9583 17.8333 14.9583C17.7222 14.9583 17.6111 14.9375 17.5 14.8958C17.4028 14.8542 17.3125 14.7917 17.2292 14.7083L16.1667 13.6667L15.125 14.7083C15.0417 14.7917 14.9444 14.8542 14.8333 14.8958C14.7361 14.9375 14.6319 14.9583 14.5208 14.9583C14.4097 14.9583 14.2986 14.9375 14.1875 14.8958C14.0764 14.8542 13.9792 14.7917 13.8958 14.7083L12.8333 13.6458H12.5208C12.2014 14.6319 11.5972 15.4375 10.7083 16.0625C9.81944 16.6875 8.86111 17 7.83333 17Z" fill="currentColor"/>
</svg>
