<svg width="16" height="16" viewBox="0 0 16 16" fill="none" xmlns="http://www.w3.org/2000/svg">
<path d="M6.9375 8.875L5.6875 7.64583C5.53472 7.49305 5.36111 7.41667 5.16667 7.41667C4.97222 7.41667 4.79861 7.49305 4.64583 7.64583C4.49306 7.79861 4.41667 7.97917 4.41667 8.1875C4.41667 8.38194 4.49306 8.55555 4.64583 8.70833L6.41667 10.4792C6.56944 10.6319 6.74306 10.7083 6.9375 10.7083C7.13194 10.7083 7.30556 10.6319 7.45833 10.4792L11.3542 6.58333C11.5069 6.43055 11.5833 6.25694 11.5833 6.0625C11.5833 5.85417 11.5069 5.67361 11.3542 5.52083C11.2014 5.36806 11.0278 5.29167 10.8333 5.29167C10.6389 5.29167 10.4653 5.36806 10.3125 5.52083L6.9375 8.875ZM8 16C6.90278 16 5.86806 15.7917 4.89583 15.375C3.92361 14.9583 3.06944 14.3889 2.33333 13.6667C1.61111 12.9306 1.04167 12.0764 0.625 11.1042C0.208334 10.1319 1.78814e-07 9.09722 1.78814e-07 8C1.78814e-07 6.88889 0.208334 5.85417 0.625 4.89583C1.04167 3.92361 1.61111 3.07639 2.33333 2.35417C3.06944 1.61805 3.92361 1.04167 4.89583 0.624999C5.86806 0.208333 6.90278 -7.15256e-07 8 -7.15256e-07C9.11111 -7.15256e-07 10.1458 0.208333 11.1042 0.624999C12.0764 1.04167 12.9236 1.61805 13.6458 2.35417C14.3819 3.07639 14.9583 3.92361 15.375 4.89583C15.7917 5.85417 16 6.88889 16 8C16 9.09722 15.7917 10.1319 15.375 11.1042C14.9583 12.0764 14.3819 12.9306 13.6458 13.6667C12.9236 14.3889 12.0764 14.9583 11.1042 15.375C10.1458 15.7917 9.11111 16 8 16ZM8 14.5C9.80556 14.5 11.3403 13.8681 12.6042 12.6042C13.8681 11.3403 14.5 9.80556 14.5 8C14.5 6.19444 13.8681 4.65972 12.6042 3.39583C11.3403 2.13194 9.80556 1.5 8 1.5C6.19444 1.5 4.65972 2.13194 3.39583 3.39583C2.13194 4.65972 1.5 6.19444 1.5 8C1.5 9.80556 2.13194 11.3403 3.39583 12.6042C4.65972 13.8681 6.19444 14.5 8 14.5Z" fill="currentColor"/>
</svg>
