<svg width="40" height="40" viewBox="0 0 40 40" fill="none" xmlns="http://www.w3.org/2000/svg">
<g clip-path="url(#clip0_1113_6679)">
<path d="M16.25 25.1375L29.4125 11.975C29.6875 11.7 30 11.5625 30.35 11.5625C30.725 11.5625 31.0375 11.7 31.2875 11.975C31.5625 12.25 31.7 12.5625 31.7 12.9125C31.7 13.2625 31.5625 13.575 31.2875 13.85L17.1875 27.95C16.9125 28.225 16.6 28.3625 16.25 28.3625C15.9 28.3625 15.6 28.225 15.35 27.95L8.7125 21.3125C8.4375 21.0625 8.3 20.7625 8.3 20.4125C8.325 20.0375 8.475 19.7125 8.75 19.4375C9 19.1875 9.3 19.0625 9.65 19.0625C10.025 19.0625 10.35 19.1875 10.625 19.4375L16.25 25.1375Z" fill="currentColor"/>
</g>
<defs>
<clipPath id="clip0_1113_6679">
<rect width="40" height="40" fill="white"/>
</clipPath>
</defs>
</svg>
