<svg width="24" height="24" viewBox="0 0 24 24" fill="none" xmlns="http://www.w3.org/2000/svg">
<path d="M11.9997 14.9502C11.8664 14.9502 11.7414 14.9292 11.6247 14.8872C11.508 14.8459 11.3997 14.7752 11.2997 14.6752L6.6747 10.0502C6.49136 9.86689 6.40403 9.63755 6.4127 9.36222C6.4207 9.08755 6.51636 8.85855 6.6997 8.67522C6.88303 8.49189 7.11636 8.40022 7.3997 8.40022C7.68303 8.40022 7.91636 8.49189 8.0997 8.67522L11.9997 12.5752L15.9247 8.65022C16.108 8.46689 16.3374 8.37922 16.6127 8.38722C16.8874 8.39589 17.1164 8.49189 17.2997 8.67522C17.483 8.85855 17.5747 9.09189 17.5747 9.37522C17.5747 9.65855 17.483 9.89189 17.2997 10.0752L12.6997 14.6752C12.5997 14.7752 12.4914 14.8459 12.3747 14.8872C12.258 14.9292 12.133 14.9502 11.9997 14.9502Z" fill="currentColor"/>
</svg>
