<svg width="24" height="24" viewBox="0 0 24 24" fill="none" xmlns="http://www.w3.org/2000/svg">
  <path d="M11.9997 9.0498C11.8664 9.0498 11.7414 9.0708 11.6247 9.1128C11.508 9.1541 11.3997 9.2248 11.2997 9.3248L6.6747 13.9498C6.49136 14.1331 6.40403 14.3624 6.4127 14.6378C6.4207 14.9124 6.51636 15.1414 6.6997 15.3248C6.88303 15.5081 7.11636 15.5998 7.3997 15.5998C7.68303 15.5998 7.91636 15.5081 8.0997 15.3248L11.9997 11.4248L15.9247 15.3498C16.108 15.5331 16.3374 15.6208 16.6127 15.6128C16.8874 15.6041 17.1164 15.5081 17.2997 15.3248C17.483 15.1414 17.5747 14.9081 17.5747 14.6248C17.5747 14.3414 17.483 14.1081 17.2997 13.9248L12.6997 9.3248C12.5997 9.2248 12.4914 9.1541 12.3747 9.1128C12.258 9.0708 12.133 9.0498 11.9997 9.0498Z" fill="currentColor"/>
</svg>
