<svg width="28" height="28" viewBox="0 0 28 28" fill="none" xmlns="http://www.w3.org/2000/svg">
<path d="M20.825 17.975V10.025C20.825 9.725 20.6875 9.525 20.4125 9.425C20.1375 9.3 19.9 9.35 19.7 9.575L16.175 13.0625C15.925 13.3375 15.8 13.65 15.8 14C15.8 14.35 15.925 14.65 16.175 14.9L19.7 18.425C19.9 18.625 20.1375 18.675 20.4125 18.575C20.6875 18.475 20.825 18.275 20.825 17.975ZM3.125 27.5C2.4 27.5 1.775 27.25 1.25 26.75C0.75 26.225 0.5 25.6 0.5 24.875V3.125C0.5 2.4 0.75 1.7875 1.25 1.2875C1.775 0.762498 2.4 0.499998 3.125 0.499998H24.875C25.6 0.499998 26.2125 0.762498 26.7125 1.2875C27.2375 1.7875 27.5 2.4 27.5 3.125V24.875C27.5 25.6 27.2375 26.225 26.7125 26.75C26.2125 27.25 25.6 27.5 24.875 27.5H3.125ZM8.15 24.875V3.125H3.125V24.875H8.15ZM10.775 24.875H24.875V3.125H10.775V24.875ZM8.15 24.875H3.125H8.15Z" fill="currentColor"/>
</svg>
