<svg width="40" height="40" viewBox="0 0 40 40" fill="none" xmlns="http://www.w3.org/2000/svg">
<g clip-path="url(#clip0_1113_6653)">
<path d="M20 33.5C16.25 33.5 13.0625 32.1875 10.4375 29.5625C7.8125 26.9375 6.5 23.75 6.5 20C6.5 16.575 7.5625 13.65 9.6875 11.225C11.8125 8.775 14.55 7.275 17.9 6.725C18.325 6.625 18.6875 6.6375 18.9875 6.7625C19.2875 6.8875 19.525 7.075 19.7 7.325C19.875 7.55 19.9625 7.8375 19.9625 8.1875C19.9625 8.5125 19.8625 8.875 19.6625 9.275C19.3375 9.875 19.0875 10.5125 18.9125 11.1875C18.7375 11.8375 18.65 12.525 18.65 13.25C18.65 15.5 19.4375 17.4125 21.0125 18.9875C22.5875 20.5625 24.5 21.35 26.75 21.35C27.45 21.35 28.1375 21.2625 28.8125 21.0875C29.4875 20.9125 30.1125 20.675 30.6875 20.375C31.1125 20.2 31.4875 20.125 31.8125 20.15C32.1625 20.15 32.4625 20.2375 32.7125 20.4125C32.9625 20.5625 33.1375 20.8 33.2375 21.125C33.3375 21.425 33.35 21.8 33.275 22.25C32.75 25.475 31.25 28.1625 28.775 30.3125C26.325 32.4375 23.4 33.5 20 33.5ZM20 30.875C22.475 30.875 24.65 30.15 26.525 28.7C28.425 27.25 29.7 25.4625 30.35 23.3375C29.775 23.5375 29.1875 23.7 28.5875 23.825C27.9875 23.925 27.375 23.975 26.75 23.975C23.775 23.975 21.2375 22.9375 19.1375 20.8625C17.0625 18.7625 16.025 16.225 16.025 13.25C16.025 12.7 16.075 12.125 16.175 11.525C16.275 10.925 16.4375 10.2875 16.6625 9.6125C14.4625 10.3375 12.65 11.6625 11.225 13.5875C9.825 15.4875 9.125 17.625 9.125 20C9.125 23 10.1875 25.5625 12.3125 27.6875C14.4375 29.8125 17 30.875 20 30.875Z" fill="currentColor"/>
</g>
<defs>
<clipPath id="clip0_1113_6653">
<rect width="40" height="40" fill="white"/>
</clipPath>
</defs>
</svg>
