<svg width="16" height="10" viewBox="0 0 16 10" fill="none" xmlns="http://www.w3.org/2000/svg">
<path d="M13.4375 8.14583L9.02083 3.75L6.91667 5.85417C6.625 6.14583 6.27083 6.29167 5.85417 6.29167C5.4375 6.29167 5.08333 6.14583 4.79167 5.85417L0.520834 1.58333C0.368056 1.43056 0.291667 1.25694 0.291667 1.0625C0.305556 0.854166 0.388889 0.673611 0.541667 0.520833C0.694445 0.368055 0.868056 0.291666 1.0625 0.291666C1.27083 0.291666 1.45139 0.368055 1.60417 0.520833L5.85417 4.79167L7.95833 2.6875C8.25 2.39583 8.60417 2.25 9.02083 2.25C9.4375 2.25 9.79167 2.39583 10.0833 2.6875L14.5 7.08333V5.39583C14.5 5.1875 14.5694 5.01389 14.7083 4.875C14.8611 4.72222 15.0417 4.64583 15.25 4.64583C15.4583 4.64583 15.6319 4.72222 15.7708 4.875C15.9236 5.01389 16 5.1875 16 5.39583V8.89583C16 9.10417 15.9236 9.28472 15.7708 9.4375C15.6319 9.57639 15.4583 9.64583 15.25 9.64583H11.75C11.5417 9.64583 11.3611 9.57639 11.2083 9.4375C11.0694 9.28472 11 9.10417 11 8.89583C11 8.6875 11.0694 8.51389 11.2083 8.375C11.3611 8.22222 11.5417 8.14583 11.75 8.14583H13.4375Z" fill="currentColor"/>
</svg>
