<svg width="40" height="40" viewBox="0 0 40 40" fill="none" xmlns="http://www.w3.org/2000/svg">
<g clip-path="url(#clip0_1113_6676)">
<path d="M12.125 36.5C11.425 36.5 10.8125 36.2375 10.2875 35.7125C9.7625 35.1875 9.5 34.575 9.5 33.875V6.125C9.5 5.4 9.7625 4.7875 10.2875 4.2875C10.8125 3.7625 11.425 3.5 12.125 3.5H27.875C28.6 3.5 29.2125 3.7625 29.7125 4.2875C30.2375 4.7875 30.5 5.4 30.5 6.125V33.875C30.5 34.575 30.2375 35.1875 29.7125 35.7125C29.2125 36.2375 28.6 36.5 27.875 36.5H12.125ZM12.125 29.9375V33.875H27.875V29.9375H12.125ZM20 33.2C20.375 33.2 20.6875 33.075 20.9375 32.825C21.1875 32.575 21.3125 32.2625 21.3125 31.8875C21.3125 31.5125 21.1875 31.2 20.9375 30.95C20.6875 30.7 20.375 30.575 20 30.575C19.625 30.575 19.3125 30.7125 19.0625 30.9875C18.8125 31.2375 18.6875 31.55 18.6875 31.925C18.6875 32.275 18.8125 32.575 19.0625 32.825C19.3125 33.075 19.625 33.2 20 33.2ZM12.125 27.3125H27.875V10.0625H12.125V27.3125ZM12.125 7.4375H27.875V6.125H12.125V7.4375ZM12.125 29.9375V33.875V29.9375ZM12.125 7.4375V6.125V7.4375Z" fill="currentColor"/>
</g>
<defs>
<clipPath id="clip0_1113_6676">
<rect width="40" height="40" fill="white"/>
</clipPath>
</defs>
</svg>
