<svg width="17" height="16" viewBox="0 0 17 16" fill="none" xmlns="http://www.w3.org/2000/svg">
<g clip-path="url(#clip0_858_1728)">
<path d="M6 9C5.79167 9 5.61111 8.93056 5.45833 8.79167C5.31944 8.63889 5.25 8.45833 5.25 8.25V2.875L3.58333 4.54167C3.43056 4.69444 3.25 4.77083 3.04167 4.77083C2.84722 4.77083 2.67361 4.69444 2.52083 4.54167C2.36806 4.38889 2.29167 4.21528 2.29167 4.02083C2.29167 3.8125 2.36806 3.63194 2.52083 3.47917L5.47917 0.520833C5.54861 0.451388 5.625 0.402777 5.70833 0.375C5.80556 0.333333 5.90278 0.312499 6 0.312499C6.09722 0.312499 6.1875 0.333333 6.27083 0.375C6.36806 0.402777 6.45139 0.451388 6.52083 0.520833L9.47917 3.47917C9.63195 3.63194 9.70833 3.80555 9.70833 4C9.70833 4.19444 9.63195 4.36805 9.47917 4.52083C9.32639 4.67361 9.14583 4.75 8.9375 4.75C8.74306 4.75 8.56944 4.67361 8.41667 4.52083L6.75 2.875V8.25C6.75 8.45833 6.67361 8.63889 6.52083 8.79167C6.38194 8.93056 6.20833 9 6 9ZM11 15.6875C10.9028 15.6875 10.8056 15.6736 10.7083 15.6458C10.625 15.6042 10.5486 15.5486 10.4792 15.4792L7.52083 12.5208C7.36806 12.3681 7.29167 12.1944 7.29167 12C7.30556 11.7917 7.38889 11.6111 7.54167 11.4583C7.69444 11.3056 7.86806 11.2292 8.0625 11.2292C8.27083 11.2292 8.45139 11.3056 8.60417 11.4583L10.25 13.125V7.75C10.25 7.54167 10.3194 7.36805 10.4583 7.22917C10.6111 7.07639 10.7917 7 11 7C11.2083 7 11.3819 7.07639 11.5208 7.22917C11.6736 7.36805 11.75 7.54167 11.75 7.75V13.125L13.4167 11.4583C13.5694 11.3056 13.7431 11.2292 13.9375 11.2292C14.1458 11.2292 14.3264 11.3056 14.4792 11.4583C14.6319 11.6111 14.7083 11.7917 14.7083 12C14.7083 12.1944 14.6319 12.3681 14.4792 12.5208L11.5208 15.4792C11.4514 15.5486 11.3681 15.6042 11.2708 15.6458C11.1875 15.6736 11.0972 15.6875 11 15.6875Z" fill="currentColor"/>
</g>
<defs>
<clipPath id="clip0_858_1728">
<rect width="16" height="16" fill="white" transform="translate(0.5)"/>
</clipPath>
</defs>
</svg>
