<svg width="21" height="20" viewBox="0 0 21 20" fill="none" xmlns="http://www.w3.org/2000/svg">
<path d="M10.5 12.15C10.4222 12.15 10.3444 12.1389 10.2667 12.1167C10.2 12.0833 10.1389 12.0389 10.0833 11.9833L7.71667 9.61667C7.59444 9.49444 7.53333 9.35555 7.53333 9.2C7.54444 9.03333 7.61111 8.88889 7.73333 8.76667C7.85556 8.64444 7.99444 8.58333 8.15 8.58333C8.31667 8.58333 8.46111 8.64444 8.58333 8.76667L9.9 10.1V5C9.9 4.83333 9.95556 4.69444 10.0667 4.58333C10.1889 4.46111 10.3333 4.4 10.5 4.4C10.6667 4.4 10.8056 4.46111 10.9167 4.58333C11.0389 4.69444 11.1 4.83333 11.1 5V10.1L12.4333 8.76667C12.5556 8.64444 12.6944 8.58889 12.85 8.6C13.0167 8.6 13.1611 8.66111 13.2833 8.78333C13.4056 8.90556 13.4667 9.05 13.4667 9.21667C13.4667 9.37222 13.4056 9.51111 13.2833 9.63333L10.9167 11.9833C10.8611 12.0389 10.7944 12.0833 10.7167 12.1167C10.65 12.1389 10.5778 12.15 10.5 12.15ZM6.9 14.8C6.56667 14.8 6.28333 14.6833 6.05 14.45C5.81667 14.2167 5.7 13.9333 5.7 13.6V13C5.7 12.8333 5.75556 12.6944 5.86667 12.5833C5.98889 12.4611 6.13333 12.4 6.3 12.4C6.46667 12.4 6.60556 12.4611 6.71667 12.5833C6.83889 12.6944 6.9 12.8333 6.9 13V13.6H14.1V13C14.1 12.8333 14.1556 12.6944 14.2667 12.5833C14.3889 12.4611 14.5333 12.4 14.7 12.4C14.8667 12.4 15.0056 12.4611 15.1167 12.5833C15.2389 12.6944 15.3 12.8333 15.3 13V13.6C15.3 13.9333 15.1833 14.2167 14.95 14.45C14.7167 14.6833 14.4333 14.8 14.1 14.8H6.9Z" fill="currentColor"/>
</svg>
