<svg width="24" height="24" viewBox="0 0 24 24" fill="none" xmlns="http://www.w3.org/2000/svg">
<path d="M4.54167 17.8333C4.30556 17.8333 4.09722 17.75 3.91667 17.5833C3.75 17.4028 3.66667 17.1944 3.66667 16.9583C3.66667 16.7222 3.75 16.5208 3.91667 16.3542C4.09722 16.1736 4.30556 16.0833 4.54167 16.0833H19.4583C19.6944 16.0833 19.8958 16.1736 20.0625 16.3542C20.2431 16.5208 20.3333 16.7222 20.3333 16.9583C20.3333 17.1944 20.2431 17.4028 20.0625 17.5833C19.8958 17.75 19.6944 17.8333 19.4583 17.8333H4.54167ZM4.10417 12.4583C3.9375 12.3611 3.82639 12.2222 3.77083 12.0417C3.71528 11.8611 3.74306 11.6944 3.85417 11.5417L4.20833 10.9583H3.47917C3.29861 10.9583 3.14583 10.8958 3.02083 10.7708C2.89583 10.6319 2.83333 10.4722 2.83333 10.2917C2.83333 10.1111 2.89583 9.95833 3.02083 9.83333C3.15972 9.70833 3.31944 9.64583 3.5 9.64583H4.20833L3.85417 9.0625C3.74306 8.90972 3.71528 8.74305 3.77083 8.5625C3.82639 8.38194 3.9375 8.24305 4.10417 8.14583C4.25694 8.04861 4.41667 8.02778 4.58333 8.08333C4.76389 8.13889 4.90278 8.24305 5 8.39583L5.35417 9L5.70833 8.39583C5.80556 8.24305 5.9375 8.13889 6.10417 8.08333C6.28472 8.02778 6.45139 8.04861 6.60417 8.14583C6.77083 8.24305 6.875 8.38194 6.91667 8.5625C6.97222 8.74305 6.95139 8.90972 6.85417 9.0625L6.5 9.64583H7.22917C7.40972 9.64583 7.5625 9.71528 7.6875 9.85417C7.8125 9.97917 7.875 10.1319 7.875 10.3125C7.875 10.4931 7.8125 10.6458 7.6875 10.7708C7.5625 10.8958 7.40972 10.9583 7.22917 10.9583H6.5L6.85417 11.5417C6.95139 11.6944 6.97222 11.8611 6.91667 12.0417C6.875 12.2222 6.77083 12.3611 6.60417 12.4583C6.45139 12.5556 6.28472 12.5764 6.10417 12.5208C5.9375 12.4653 5.80556 12.3611 5.70833 12.2083L5.35417 11.6042L5 12.2083C4.90278 12.3611 4.76389 12.4653 4.58333 12.5208C4.41667 12.5764 4.25694 12.5556 4.10417 12.4583ZM10.75 12.4583C10.5833 12.3611 10.4722 12.2222 10.4167 12.0417C10.3611 11.8611 10.3889 11.6944 10.5 11.5417L10.8542 10.9583H10.125C9.94445 10.9583 9.79167 10.8958 9.66667 10.7708C9.54167 10.6319 9.47917 10.4722 9.47917 10.2917C9.47917 10.1111 9.54167 9.95833 9.66667 9.83333C9.80556 9.70833 9.96528 9.64583 10.1458 9.64583H10.8542L10.5 9.0625C10.3889 8.90972 10.3611 8.74305 10.4167 8.5625C10.4722 8.38194 10.5833 8.24305 10.75 8.14583C10.9028 8.04861 11.0625 8.02778 11.2292 8.08333C11.4097 8.13889 11.5486 8.24305 11.6458 8.39583L12 9L12.3542 8.39583C12.4514 8.24305 12.5833 8.13889 12.75 8.08333C12.9306 8.02778 13.0972 8.04861 13.25 8.14583C13.4167 8.24305 13.5278 8.38194 13.5833 8.5625C13.6389 8.74305 13.6111 8.90972 13.5 9.0625L13.1458 9.64583H13.875C14.0556 9.64583 14.2083 9.71528 14.3333 9.85417C14.4583 9.97917 14.5208 10.1319 14.5208 10.3125C14.5208 10.4931 14.4583 10.6458 14.3333 10.7708C14.2083 10.8958 14.0556 10.9583 13.875 10.9583H13.1458L13.5 11.5417C13.6111 11.6944 13.6389 11.8611 13.5833 12.0417C13.5278 12.2222 13.4167 12.3611 13.25 12.4583C13.0972 12.5556 12.9306 12.5764 12.75 12.5208C12.5833 12.4653 12.4514 12.3611 12.3542 12.2083L12 11.6042L11.6458 12.2083C11.5486 12.3611 11.4097 12.4653 11.2292 12.5208C11.0625 12.5764 10.9028 12.5556 10.75 12.4583ZM17.3958 12.4583C17.2292 12.3611 17.1181 12.2222 17.0625 12.0417C17.0069 11.8611 17.0347 11.6944 17.1458 11.5417L17.5 10.9583H16.7708C16.5903 10.9583 16.4375 10.8958 16.3125 10.7708C16.1875 10.6319 16.125 10.4722 16.125 10.2917C16.125 10.1111 16.1875 9.95833 16.3125 9.83333C16.4514 9.70833 16.6111 9.64583 16.7917 9.64583H17.5L17.1458 9.0625C17.0347 8.90972 17.0069 8.74305 17.0625 8.5625C17.1181 8.38194 17.2292 8.24305 17.3958 8.14583C17.5486 8.04861 17.7083 8.02778 17.875 8.08333C18.0556 8.13889 18.1944 8.24305 18.2917 8.39583L18.6458 9L19 8.39583C19.0972 8.24305 19.2292 8.13889 19.3958 8.08333C19.5764 8.02778 19.7431 8.04861 19.8958 8.14583C20.0625 8.24305 20.1736 8.38194 20.2292 8.5625C20.2847 8.74305 20.2569 8.90972 20.1458 9.0625L19.7917 9.64583H20.5208C20.7014 9.64583 20.8542 9.71528 20.9792 9.85417C21.1042 9.97917 21.1667 10.1319 21.1667 10.3125C21.1667 10.4931 21.1042 10.6458 20.9792 10.7708C20.8542 10.8958 20.7014 10.9583 20.5208 10.9583H19.7917L20.1458 11.5417C20.2569 11.6944 20.2847 11.8611 20.2292 12.0417C20.1736 12.2222 20.0625 12.3611 19.8958 12.4583C19.7431 12.5556 19.5764 12.5764 19.3958 12.5208C19.2292 12.4653 19.0972 12.3611 19 12.2083L18.6458 11.6042L18.2917 12.2083C18.1944 12.3611 18.0556 12.4653 17.875 12.5208C17.7083 12.5764 17.5486 12.5556 17.3958 12.4583Z" fill="currentColor"/>
</svg>
