<svg width="24" height="24" viewBox="0 0 24 24" fill="none" xmlns="http://www.w3.org/2000/svg">
<path d="M12 7C9.9375 7 8.28125 7.9375 7 9.125C5.78125 10.25 4.96875 11.5625 4.53125 12.5C4.96875 13.4375 5.78125 14.7812 7 15.9062C8.28125 17.0938 9.9375 18 12 18C14.0312 18 15.6875 17.0938 16.9688 15.9062C18.1875 14.7812 19.0312 13.4375 19.4375 12.5C19.0312 11.5625 18.1875 10.25 17 9.125C15.6875 7.9375 14.0312 7 12 7ZM5.96875 8.03125C7.4375 6.65625 9.46875 5.5 12 5.5C14.5 5.5 16.5312 6.65625 18 8.03125C19.4688 9.40625 20.4375 11 20.9062 12.125C21 12.375 21 12.6562 20.9062 12.9062C20.4375 14 19.4688 15.625 18 17C16.5312 18.375 14.5 19.5 12 19.5C9.46875 19.5 7.4375 18.375 5.96875 17C4.5 15.625 3.53125 14 3.0625 12.9062C2.96875 12.6562 2.96875 12.375 3.0625 12.125C3.53125 11 4.5 9.375 5.96875 8.03125ZM12 15C13.375 15 14.5 13.9062 14.5 12.5C14.5 11.125 13.375 10 12 10C11.9688 10 11.9375 10 11.9375 10C11.9688 10.1875 12 10.3438 12 10.5C12 11.625 11.0938 12.5 10 12.5C9.8125 12.5 9.65625 12.5 9.5 12.4375C9.5 12.4688 9.5 12.5 9.5 12.5C9.5 13.9062 10.5938 15 12 15ZM12 8.5C13.4062 8.5 14.7188 9.28125 15.4375 10.5C16.1562 11.75 16.1562 13.2812 15.4375 14.5C14.7188 15.75 13.4062 16.5 12 16.5C10.5625 16.5 9.25 15.75 8.53125 14.5C7.8125 13.2812 7.8125 11.75 8.53125 10.5C9.25 9.28125 10.5625 8.5 12 8.5Z" fill="currentColor" fill-opacity="0.56"/>
</svg>
