<svg width="48" height="48" viewBox="0 0 48 48" fill="none" xmlns="http://www.w3.org/2000/svg">
<path d="M24 8.4C28.3333 8.4 32.0167 9.91667 35.05 12.95C38.0833 15.9833 39.6 19.6667 39.6 24C39.6 28.3333 38.0833 32.0167 35.05 35.05C32.0167 38.0833 28.3333 39.6 24 39.6C19.6667 39.6 15.9833 38.0833 12.95 35.05C9.91667 32.0167 8.4 28.3333 8.4 24C8.4 19.6667 9.91667 15.9833 12.95 12.95C15.9833 9.91667 19.6667 8.4 24 8.4ZM24 36.6C27.4667 36.6 30.4333 35.3667 32.9 32.9C35.3667 30.4333 36.6 27.4667 36.6 24C36.6 20.5333 35.3667 17.5667 32.9 15.1C30.4333 12.6333 27.4667 11.4 24 11.4C20.5333 11.4 17.5667 12.6333 15.1 15.1C12.6333 17.5667 11.4 20.5333 11.4 24C11.4 27.4667 12.6333 30.4333 15.1 32.9C17.5667 35.3667 20.5333 36.6 24 36.6ZM24 30.85C25.5667 30.85 26.9833 30.4167 28.25 29.55C29.5167 28.6833 30.4667 27.5167 31.1 26.05H16.9C17.5 27.5167 18.4417 28.6833 19.725 29.55C21.0083 30.4167 22.4333 30.85 24 30.85ZM16.9 19.8C16.9 20.3525 17.0869 20.8156 17.4606 21.1894C17.8344 21.5631 18.2975 21.75 18.85 21.75C19.4025 21.75 19.8656 21.5631 20.2394 21.1894C20.6131 20.8156 20.8 20.3525 20.8 19.8C20.8 19.2475 20.6131 18.7844 20.2394 18.4107C19.8656 18.0369 19.4025 17.85 18.85 17.85C18.2975 17.85 17.8344 18.0369 17.4606 18.4107C17.0869 18.7844 16.9 19.2475 16.9 19.8ZM27.2 19.8C27.2 20.3525 27.3869 20.8156 27.7607 21.1894C28.1344 21.5631 28.5975 21.75 29.15 21.75C29.7025 21.75 30.1656 21.5631 30.5394 21.1894C30.9131 20.8156 31.1 20.3525 31.1 19.8C31.1 19.2475 30.9131 18.7844 30.5394 18.4107C30.1656 18.0369 29.7025 17.85 29.15 17.85C28.5975 17.85 28.1344 18.0369 27.7607 18.4107C27.3869 18.7844 27.2 19.2475 27.2 19.8ZM2 11.45V7.6C2 6.06667 2.55 4.75 3.65 3.65C4.75 2.55 6.06667 2 7.6 2H11.45V5H7.6C6.86333 5 6.24583 5.24917 5.7475 5.7475C5.24917 6.24583 5 6.86333 5 7.6V11.45H2ZM7.6 46C6.06667 46 4.75 45.45 3.65 44.35C2.55 43.25 2 41.9333 2 40.4V36.55H5V40.4C5 41.1367 5.24917 41.7542 5.7475 42.2525C6.24583 42.7508 6.86333 43 7.6 43H11.45V46H7.6ZM36.55 45.8V42.8H40.4C41.1367 42.8 41.7542 42.5508 42.2525 42.0525C42.7508 41.5542 43 40.9367 43 40.2V36.3H46V40.2C46 41.7333 45.45 43.05 44.35 44.15C43.25 45.25 41.9333 45.8 40.4 45.8H36.55ZM43 11.45V7.6C43 6.86333 42.7508 6.24583 42.2525 5.7475C41.7542 5.24917 41.1367 5 40.4 5H36.55V2H40.4C41.9333 2 43.25 2.55 44.35 3.65C45.45 4.75 46 6.06667 46 7.6V11.45H43Z" fill="currentColor"/>
</svg>
