<svg width="74" height="74" viewBox="0 0 74 74" fill="none" xmlns="http://www.w3.org/2000/svg">
<path d="M37 40.85L48.825 52.675C49.375 53.225 50.0167 53.5 50.75 53.5C51.4833 53.5 52.125 53.225 52.675 52.675C53.225 52.125 53.5 51.4833 53.5 50.75C53.5 50.0167 53.225 49.375 52.675 48.825L40.85 37L52.675 25.175C53.225 24.625 53.5 23.9833 53.5 23.25C53.5 22.5167 53.225 21.875 52.675 21.325C52.125 20.775 51.4833 20.5 50.75 20.5C50.0167 20.5 49.375 20.775 48.825 21.325L37 33.15L25.175 21.325C24.625 20.775 23.9833 20.5 23.25 20.5C22.5167 20.5 21.875 20.775 21.325 21.325C20.775 21.875 20.5 22.5167 20.5 23.25C20.5 23.9833 20.775 24.625 21.325 25.175L33.15 37L21.325 48.825C20.775 49.375 20.5 50.0167 20.5 50.75C20.5 51.4833 20.775 52.125 21.325 52.675C21.875 53.225 22.5167 53.5 23.25 53.5C23.9833 53.5 24.625 53.225 25.175 52.675L37 40.85ZM37 73.6667C31.9889 73.6667 27.2528 72.7194 22.7917 70.825C18.3306 68.8694 14.4194 66.2417 11.0583 62.9417C7.75833 59.5806 5.13056 55.6694 3.175 51.2083C1.28056 46.7472 0.333334 42.0111 0.333334 37C0.333334 31.9278 1.28056 27.1611 3.175 22.7C5.13056 18.2389 7.75833 14.3583 11.0583 11.0583C14.4194 7.75833 18.3306 5.16111 22.7917 3.26666C27.2528 1.31111 31.9889 0.333332 37 0.333332C42.0722 0.333332 46.8389 1.31111 51.3 3.26666C55.7611 5.16111 59.6417 7.75833 62.9417 11.0583C66.2417 14.3583 68.8389 18.2389 70.7333 22.7C72.6889 27.1611 73.6667 31.9278 73.6667 37C73.6667 42.0111 72.6889 46.7472 70.7333 51.2083C68.8389 55.6694 66.2417 59.5806 62.9417 62.9417C59.6417 66.2417 55.7611 68.8694 51.3 70.825C46.8389 72.7194 42.0722 73.6667 37 73.6667Z" fill="currentColor"/>
</svg>
