<svg width="32" height="34" viewBox="0 0 32 34" fill="none" xmlns="http://www.w3.org/2000/svg">
<path d="M25.6875 4.42188C25.5312 4.42188 25.4531 4.42188 25.2969 4.34375C22.0938 2.70312 19.3594 2 16 2C12.7188 2 9.59375 2.78125 6.70312 4.34375C6.3125 4.57812 5.84375 4.42188 5.60938 4.03125C5.375 3.64062 5.53125 3.09375 5.92188 2.85938C9.04688 1.21875 12.4062 0.359375 16 0.359375C19.5938 0.359375 22.6406 1.14062 26.0781 2.85938C26.4688 3.09375 26.625 3.5625 26.3906 3.95312C26.2344 4.26562 26 4.42188 25.6875 4.42188ZM1.85938 13.1719C1.70312 13.1719 1.46875 13.1719 1.3125 13.0156C1 12.7812 0.921875 12.2344 1.15625 11.9219C2.79688 9.57812 4.90625 7.70312 7.40625 6.45312C12.6406 3.71875 19.3594 3.71875 24.5938 6.45312C27.0938 7.70312 29.2031 9.5 30.8438 11.8438C31.0781 12.2344 31 12.7031 30.6094 13.0156C30.2188 13.25 29.75 13.1719 29.4375 12.7812C27.9531 10.6719 26.0781 9.03125 23.8125 7.9375C19.0469 5.4375 12.9531 5.4375 8.1875 7.9375C5.92188 9.10938 3.96875 10.75 2.48438 12.8594C2.32812 13.0938 2.09375 13.1719 1.85938 13.1719ZM12.25 33.3281C12.0156 33.3281 11.7812 33.25 11.7031 33.0938C10.2188 31.6094 9.4375 30.6719 8.34375 28.6406C7.17188 26.6094 6.54688 24.1094 6.54688 21.4531C6.54688 16.4531 10.7656 12.4688 16 12.4688C21.2344 12.4688 25.4531 16.4531 25.4531 21.4531C25.4531 21.9219 25.0625 22.2344 24.5938 22.2344C24.125 22.2344 23.7344 21.9219 23.7344 21.4531C23.7344 17.3906 20.2969 14.1094 16 14.1094C11.7031 14.1094 8.26562 17.3906 8.26562 21.4531C8.26562 23.7969 8.73438 26.0625 9.75 27.8594C10.8438 29.7344 11.5469 30.5938 12.875 31.9219C13.1875 32.2344 13.1875 32.7031 12.875 33.0938C12.7188 33.25 12.4844 33.3281 12.25 33.3281ZM24.2031 30.2031C22.25 30.2031 20.4531 29.7344 19.0469 28.7188C16.5469 27.0781 15.0625 24.3438 15.0625 21.4531C15.0625 20.9844 15.4531 20.5938 15.9219 20.5938C16.3906 20.5938 16.7031 20.9844 16.7031 21.4531C16.7031 23.7969 17.9531 25.9844 19.9844 27.3906C21.1562 28.1719 22.5625 28.5625 24.2031 28.5625C24.5938 28.5625 25.2969 28.4844 25.9219 28.4062C26.3906 28.3281 26.7812 28.5625 26.9375 29.0312C27.0156 29.5 26.7031 29.9688 26.2344 30.0469C25.2969 30.2031 24.4375 30.2031 24.2031 30.2031ZM20.8438 33.6406C20.7656 33.6406 20.6875 33.6406 20.6094 33.6406C17.9531 32.9375 16.2344 31.9219 14.4375 30.125C12.0938 27.7812 10.8438 24.7344 10.8438 21.4531C10.8438 18.7188 13.1094 16.5312 15.9219 16.5312C18.8125 16.5312 21.0781 18.7188 21.0781 21.4531C21.0781 23.25 22.6406 24.6562 24.5156 24.6562C26.4688 24.6562 28.0312 23.25 28.0312 21.4531C28.0312 15.125 22.5625 10.0469 15.9219 10.0469C11.2344 10.0469 6.85938 12.7031 4.90625 16.7656C4.28125 18.0938 3.96875 19.7344 3.96875 21.4531C3.96875 22.7031 4.04688 24.8125 5.0625 27.4688C5.21875 27.8594 4.98438 28.3281 4.59375 28.4844C4.125 28.7188 3.65625 28.4844 3.5 28.0156C2.71875 25.8281 2.25 23.7188 2.25 21.4531C2.25 19.4219 2.64062 17.625 3.42188 16.0625C5.60938 11.375 10.5312 8.32812 15.9219 8.32812C23.5 8.32812 29.6719 14.1875 29.6719 21.4531C29.6719 24.1094 27.4062 26.2969 24.5156 26.2969C21.7031 26.2969 19.4375 24.1094 19.4375 21.4531C19.4375 19.6562 17.875 18.1719 15.9219 18.1719C14.0469 18.1719 12.4844 19.6562 12.4844 21.4531C12.4844 24.2656 13.5781 26.9219 15.6094 28.9531C17.1719 30.5156 18.7344 31.375 21.0781 32C21.4688 32.1562 21.7812 32.625 21.625 33.0156C21.5469 33.4062 21.2344 33.6406 20.8438 33.6406Z" fill="currentColor"/>
</svg>
