<svg width="28" height="18" viewBox="0 0 28 18" fill="none" xmlns="http://www.w3.org/2000/svg">
<path d="M1.8125 18C1.4375 18 1.125 17.875 0.875 17.625C0.625 17.375 0.5 17.0625 0.5 16.6875C0.5 16.3125 0.625 16 0.875 15.75C1.125 15.5 1.4375 15.375 1.8125 15.375H26.1875C26.5625 15.375 26.875 15.5 27.125 15.75C27.375 16 27.5 16.3125 27.5 16.6875C27.5 17.0625 27.375 17.375 27.125 17.625C26.875 17.875 26.5625 18 26.1875 18H1.8125ZM1.8125 10.3125C1.4375 10.3125 1.125 10.1875 0.875 9.9375C0.625 9.6875 0.5 9.375 0.5 9C0.5 8.625 0.625 8.3125 0.875 8.0625C1.125 7.8125 1.4375 7.6875 1.8125 7.6875H26.1875C26.5625 7.6875 26.875 7.8125 27.125 8.0625C27.375 8.3125 27.5 8.625 27.5 9C27.5 9.375 27.375 9.6875 27.125 9.9375C26.875 10.1875 26.5625 10.3125 26.1875 10.3125H1.8125ZM1.8125 2.625C1.4375 2.625 1.125 2.5 0.875 2.25C0.625 2 0.5 1.6875 0.5 1.3125C0.5 0.937499 0.625 0.624999 0.875 0.374999C1.125 0.124998 1.4375 -2.14577e-06 1.8125 -2.14577e-06H26.1875C26.5625 -2.14577e-06 26.875 0.124998 27.125 0.374999C27.375 0.624999 27.5 0.937499 27.5 1.3125C27.5 1.6875 27.375 2 27.125 2.25C26.875 2.5 26.5625 2.625 26.1875 2.625H1.8125Z" fill="currentColor"/>
</svg>
