<svg width="25" height="24" viewBox="0 0 25 24" fill="none" xmlns="http://www.w3.org/2000/svg">
<path d="M16.0208 13.0208L14.75 11.75C14.8056 11.0833 14.5903 10.4931 14.1042 9.97917C13.6181 9.46528 13.0208 9.24306 12.3125 9.3125L11.0417 8.04167C11.2778 7.95833 11.5139 7.89583 11.75 7.85417C12 7.79861 12.25 7.77083 12.5 7.77083C13.5556 7.77083 14.4514 8.13889 15.1875 8.875C15.9236 9.61111 16.2917 10.5069 16.2917 11.5625C16.2917 11.8403 16.2639 12.1042 16.2083 12.3542C16.1667 12.6042 16.1042 12.8264 16.0208 13.0208ZM18.6667 15.6458L17.4167 14.4167C17.9167 14.0278 18.3611 13.6042 18.75 13.1458C19.1389 12.6875 19.4722 12.1597 19.75 11.5625C19.0694 10.1736 18.0833 9.08333 16.7917 8.29167C15.5 7.48611 14.0694 7.08333 12.5 7.08333C12.0972 7.08333 11.7222 7.11111 11.375 7.16667C11.0417 7.20833 10.7083 7.27778 10.375 7.375L9 6C9.56944 5.76389 10.1389 5.59722 10.7083 5.5C11.2778 5.38889 11.875 5.33333 12.5 5.33333C14.4861 5.33333 16.2708 5.85417 17.8542 6.89583C19.4375 7.92361 20.625 9.28472 21.4167 10.9792C21.4444 11.0486 21.4653 11.1389 21.4792 11.25C21.5069 11.3472 21.5208 11.4514 21.5208 11.5625C21.5208 11.6736 21.5069 11.7847 21.4792 11.8958C21.4653 11.9931 21.4444 12.0764 21.4167 12.1458C21.0972 12.8403 20.7014 13.4861 20.2292 14.0833C19.7708 14.6667 19.25 15.1875 18.6667 15.6458ZM18.2917 20.2292L15.4375 17.3958C14.9514 17.5486 14.4653 17.6597 13.9792 17.7292C13.4931 17.7986 13 17.8333 12.5 17.8333C10.5139 17.8333 8.72917 17.3125 7.14583 16.2708C5.5625 15.2153 4.375 13.8403 3.58333 12.1458C3.55556 12.0625 3.52778 11.9722 3.5 11.875C3.48611 11.7778 3.47917 11.6736 3.47917 11.5625C3.47917 11.4514 3.48611 11.3472 3.5 11.25C3.51389 11.1389 3.54167 11.0486 3.58333 10.9792C3.86111 10.3819 4.19444 9.82639 4.58333 9.3125C4.98611 8.78472 5.43056 8.30556 5.91667 7.875L4.25 6.1875C4.08333 6.02083 3.99306 5.81944 3.97917 5.58333C3.97917 5.33333 4.06944 5.125 4.25 4.95833C4.41667 4.79167 4.61806 4.70833 4.85417 4.70833C5.10417 4.70833 5.3125 4.79167 5.47917 4.95833L19.5208 19.0208C19.6875 19.1875 19.7708 19.3889 19.7708 19.625C19.7708 19.8611 19.6875 20.0625 19.5208 20.2292C19.3542 20.3958 19.1458 20.4792 18.8958 20.4792C18.6597 20.4792 18.4583 20.3958 18.2917 20.2292ZM7.10417 9.0625C6.71528 9.42361 6.36111 9.8125 6.04167 10.2292C5.72222 10.6319 5.45139 11.0764 5.22917 11.5625C5.90972 12.9514 6.89583 14.0556 8.1875 14.875C9.47917 15.6806 10.9167 16.0833 12.5 16.0833C12.7361 16.0833 12.9792 16.0764 13.2292 16.0625C13.4931 16.0347 13.7431 15.9931 13.9792 15.9375L13.3125 15.2708C13.1875 15.2986 13.0556 15.3194 12.9167 15.3333C12.7778 15.3472 12.6389 15.3542 12.5 15.3542C11.4444 15.3542 10.5486 14.9861 9.8125 14.25C9.07639 13.5139 8.70833 12.6181 8.70833 11.5625C8.70833 11.4236 8.71528 11.2917 8.72917 11.1667C8.75694 11.0417 8.78472 10.9097 8.8125 10.7708L7.10417 9.0625Z" fill="currentColor"/>
</svg>
