<svg width="30" height="26" viewBox="0 0 30 26" fill="none" xmlns="http://www.w3.org/2000/svg">
<path d="M5.025 20.4625L8.2875 23.725C8.5375 24 8.6625 24.3125 8.6625 24.6625C8.6625 25.0125 8.525 25.3125 8.25 25.5625C8 25.8125 7.7 25.95 7.35 25.975C7 25.975 6.6875 25.8375 6.4125 25.5625L0.9375 20.0875C0.7875 19.9375 0.6875 19.7875 0.6375 19.6375C0.5875 19.4875 0.5625 19.325 0.5625 19.15C0.5625 18.975 0.5875 18.8125 0.6375 18.6625C0.6875 18.5125 0.7875 18.375 0.9375 18.25L6.45 12.7375C6.7 12.4875 7 12.3625 7.35 12.3625C7.7 12.3625 8.0125 12.4875 8.2875 12.7375C8.5375 12.9875 8.6625 13.3 8.6625 13.675C8.6625 14.025 8.5375 14.325 8.2875 14.575L5.025 17.8375H27.1875C27.5625 17.8375 27.875 17.9625 28.125 18.2125C28.375 18.4625 28.5 18.775 28.5 19.15C28.5 19.525 28.375 19.8375 28.125 20.0875C27.875 20.3375 27.5625 20.4625 27.1875 20.4625H5.025ZM25.0125 8.1625H2.8125C2.4375 8.1625 2.125 8.0375 1.875 7.7875C1.625 7.5375 1.5 7.225 1.5 6.85C1.5 6.475 1.625 6.1625 1.875 5.9125C2.125 5.6625 2.4375 5.5375 2.8125 5.5375H25.0125L21.7125 2.2375C21.4625 1.9875 21.3375 1.6875 21.3375 1.3375C21.3375 0.987499 21.475 0.674999 21.75 0.399999C22 0.149999 22.3 0.0249984 22.65 0.0249984C23 0.0249984 23.3125 0.149999 23.5875 0.399999L29.1 5.9125C29.225 6.0625 29.3125 6.2125 29.3625 6.3625C29.4375 6.5125 29.475 6.675 29.475 6.85C29.475 7.025 29.4375 7.1875 29.3625 7.3375C29.3125 7.4875 29.225 7.625 29.1 7.75L23.5875 13.2625C23.3375 13.5125 23.0375 13.6375 22.6875 13.6375C22.3375 13.6375 22.025 13.5125 21.75 13.2625C21.5 12.9875 21.375 12.675 21.375 12.325C21.375 11.975 21.5 11.6625 21.75 11.3875L25.0125 8.1625Z" fill="currentColor"/>
</svg>
