<svg width="30" height="24" viewBox="0 0 30 24" fill="none" xmlns="http://www.w3.org/2000/svg">
<path d="M6 24C4.35 24 2.9375 23.4125 1.7625 22.2375C0.5875 21.0625 8.9407e-08 19.65 8.9407e-08 18V6C8.9407e-08 4.35 0.5875 2.9375 1.7625 1.7625C2.9375 0.587499 4.35 -1.43051e-06 6 -1.43051e-06H24C25.65 -1.43051e-06 27.0625 0.587499 28.2375 1.7625C29.4125 2.9375 30 4.35 30 6V18C30 19.65 29.4125 21.0625 28.2375 22.2375C27.0625 23.4125 25.65 24 24 24H6ZM6 6.1875H24C24.65 6.1875 25.25 6.275 25.8 6.45C26.375 6.625 26.9 6.8875 27.375 7.2375V6C27.375 5.05 27.05 4.25 26.4 3.6C25.75 2.95 24.95 2.625 24 2.625H6C5.075 2.625 4.275 2.95 3.6 3.6C2.95 4.25 2.625 5.05 2.625 6V7.2375C3.1 6.8875 3.625 6.625 4.2 6.45C4.775 6.275 5.375 6.1875 6 6.1875ZM2.8125 11.175L20.1 15.3375C20.3 15.3875 20.5 15.4 20.7 15.375C20.9 15.325 21.0875 15.225 21.2625 15.075L26.85 10.3875C26.55 9.9125 26.15 9.5375 25.65 9.2625C25.15 8.9625 24.6 8.8125 24 8.8125H6C5.25 8.8125 4.575 9.0375 3.975 9.4875C3.4 9.9125 3.0125 10.475 2.8125 11.175Z" fill="currentColor"/>
</svg>
