<svg width="344" height="290" viewBox="0 0 344 290" fill="none" xmlns="http://www.w3.org/2000/svg">
<path d="M0 24C0 10.7452 10.7452 0 24 0H52C54.2091 0 56 1.79086 56 4V32C56 45.2548 45.2548 56 32 56H4C1.79086 56 0 54.2091 0 52V24Z" fill="#27262A"/>
<rect x="8" y="8" width="40" height="40" rx="20" fill="#27262A"/>
<g clip-path="url(#clip0_2728_13568)">
<path d="M42.2218 13.7778H13.7773V42.2223H42.2218V13.7778Z" fill="#27262A"/>
<path d="M35.9065 35.2239C35.8221 35.139 35.7726 35.0254 35.7678 34.9058C35.763 34.7861 35.8033 34.669 35.8807 34.5776L35.887 34.5701C35.9295 34.5197 35.9821 34.4786 36.0414 34.4496C36.1006 34.4206 36.1653 34.4042 36.2312 34.4015C36.2972 34.3988 36.363 34.4098 36.4244 34.4339C36.4859 34.458 36.5416 34.4946 36.5882 34.5414L37.1956 35.1488C37.2399 35.1932 37.2925 35.2284 37.3505 35.2524C37.4084 35.2764 37.4705 35.2887 37.5332 35.2887C37.5959 35.2887 37.658 35.2764 37.7159 35.2524C37.7739 35.2284 37.8265 35.1932 37.8708 35.1488L37.8776 35.142C37.922 35.0977 37.9572 35.045 37.9812 34.9871C38.0052 34.9292 38.0175 34.8671 38.0175 34.8044C38.0175 34.7417 38.0052 34.6796 37.9812 34.6216C37.9572 34.5637 37.922 34.5111 37.8776 34.4667L37.0244 33.6136C36.9507 33.5398 36.9032 33.4438 36.8893 33.3405C36.8753 33.2371 36.8956 33.132 36.9471 33.0413C38.0607 31.0731 38.4985 28.7943 38.1936 26.5536C37.8886 24.313 36.8578 22.234 35.2588 20.635C33.6598 19.036 31.5809 18.0052 29.3402 17.7002C27.0996 17.3953 24.8207 17.8331 22.8526 18.9466C22.7619 18.9981 22.6568 19.0185 22.5534 19.0046C22.45 18.9906 22.3541 18.9431 22.2803 18.8694L21.1541 17.7423C21.0645 17.6528 20.943 17.6025 20.8164 17.6025C20.6897 17.6025 20.5683 17.6528 20.4787 17.7423L20.4719 17.7493C20.3823 17.8388 20.3321 17.9603 20.3321 18.0869C20.3321 18.2135 20.3823 18.335 20.4719 18.4245L21.3551 19.3078C21.4016 19.3543 21.438 19.41 21.4618 19.4714C21.4856 19.5327 21.4964 19.5983 21.4935 19.664C21.4905 19.7298 21.474 19.7942 21.4448 19.8531C21.4156 19.9121 21.3745 19.9644 21.324 20.0066L21.3166 20.0128C21.2242 20.0899 21.1063 20.1296 20.9861 20.1241C20.8659 20.1186 20.7521 20.0684 20.6671 19.9832L18.356 17.6721C18.2665 17.5825 18.145 17.5322 18.0184 17.5322C17.8917 17.5322 17.7703 17.5825 17.6807 17.6721L17.6739 17.679C17.6296 17.7234 17.5944 17.776 17.5704 17.8339C17.5464 17.8919 17.534 17.954 17.534 18.0167C17.534 18.0794 17.5464 18.1415 17.5704 18.1994C17.5944 18.2573 17.6296 18.31 17.6739 18.3543L19.9882 20.6685C20.0724 20.7528 20.1221 20.8656 20.1273 20.9846C20.1326 21.1036 20.0932 21.2204 20.0167 21.3118L20.0079 21.3224C19.9656 21.3729 19.9134 21.4141 19.8544 21.4432C19.7954 21.4724 19.7309 21.489 19.6652 21.4919C19.5994 21.4948 19.5338 21.484 19.4725 21.4602C19.4111 21.4363 19.3554 21.4 19.3089 21.3534L17.9244 19.9707C17.8349 19.8812 17.7134 19.831 17.5868 19.831C17.4602 19.831 17.3388 19.8812 17.2492 19.9707L17.2424 19.9777C17.198 20.022 17.1629 20.0747 17.1389 20.1326C17.1149 20.1905 17.1025 20.2526 17.1025 20.3153C17.1025 20.378 17.1149 20.44 17.1389 20.4979C17.1629 20.5559 17.198 20.6085 17.2424 20.6528L18.8693 22.2798C18.9431 22.3535 18.9906 22.4495 19.0046 22.5529C19.0186 22.6563 18.9982 22.7614 18.9467 22.8521C17.8332 24.8202 17.3955 27.099 17.7004 29.3397C18.0054 31.5803 19.0363 33.6592 20.6352 35.2582C22.2342 36.8571 24.3131 37.888 26.5538 38.193C28.7944 38.4979 31.0732 38.0602 33.0413 36.9467C33.132 36.8952 33.2371 36.8749 33.3404 36.8888C33.4438 36.9027 33.5397 36.9502 33.6135 37.0239L35.0751 38.4856C35.1647 38.5751 35.2861 38.6253 35.4127 38.6253C35.5394 38.6253 35.6608 38.5751 35.7504 38.4856L35.7572 38.4786C35.8467 38.389 35.897 38.2676 35.897 38.141C35.897 38.0143 35.8467 37.8929 35.7572 37.8033L34.5424 36.5885C34.4956 36.542 34.4589 36.4862 34.4348 36.4248C34.4107 36.3633 34.3997 36.2975 34.4024 36.2316C34.4051 36.1656 34.4214 36.1009 34.4505 36.0416C34.4795 35.9824 34.5205 35.9298 34.571 35.8872L34.5785 35.881C34.67 35.8036 34.7871 35.7634 34.9068 35.7682C35.0264 35.773 35.1399 35.8225 35.2249 35.9069L37.5458 38.2276C37.5901 38.272 37.6427 38.3072 37.7007 38.3312C37.7586 38.3552 37.8207 38.3675 37.8834 38.3675C37.9461 38.3675 38.0082 38.3552 38.0661 38.3312C38.1241 38.3072 38.1767 38.272 38.221 38.2276L38.2279 38.2208C38.2722 38.1765 38.3074 38.1239 38.3314 38.0659C38.3553 38.008 38.3677 37.9459 38.3677 37.8833C38.3677 37.8206 38.3553 37.7585 38.3314 37.7006C38.3074 37.6427 38.2722 37.59 38.2279 37.5457L35.9065 35.2239ZM34.8313 32.0956L34.8244 32.1024C34.7801 32.1468 34.7275 32.182 34.6695 32.206C34.6116 32.23 34.5495 32.2424 34.4867 32.2424C34.424 32.2424 34.3619 32.23 34.304 32.206C34.246 32.182 34.1934 32.1468 34.149 32.1024L33.0496 31.003C33.0006 30.954 32.9415 30.9162 32.8764 30.8923C32.8113 30.8685 32.7417 30.8591 32.6726 30.8649C32.6035 30.8706 32.5365 30.8914 32.4762 30.9257C32.416 30.9601 32.3639 31.0071 32.3237 31.0636L32.3179 31.0716C32.2522 31.1634 32.2211 31.2756 32.2304 31.3882C32.2396 31.5007 32.2886 31.6063 32.3685 31.6862L34.012 33.3297C34.1015 33.4193 34.1519 33.5407 34.1519 33.6673C34.1519 33.794 34.1015 33.9154 34.012 34.005L34.005 34.0119C33.9607 34.0563 33.9081 34.0915 33.8501 34.1155C33.7922 34.1395 33.7301 34.1518 33.6674 34.1518C33.6047 34.1518 33.5426 34.1395 33.4847 34.1155C33.4267 34.0915 33.3741 34.0563 33.3298 34.0119L31.6874 32.3682C31.6076 32.2884 31.5019 32.2395 31.3894 32.2303C31.2769 32.2211 31.1647 32.2521 31.0729 32.3179C31.0701 32.3196 31.0674 32.3216 31.0647 32.3235C31.0082 32.3637 30.9611 32.4157 30.9268 32.476C30.8925 32.5362 30.8717 32.6033 30.8659 32.6724C30.8601 32.7415 30.8695 32.811 30.8934 32.8762C30.9173 32.9413 30.9551 33.0004 31.0042 33.0494L31.6034 33.6487C31.6929 33.7382 31.7432 33.8597 31.7432 33.9863C31.7432 34.1129 31.6929 34.2344 31.6034 34.3239L31.5964 34.3307C31.5521 34.3751 31.4995 34.4103 31.4416 34.4343C31.3836 34.4583 31.3215 34.4707 31.2588 34.4707C31.1961 34.4707 31.134 34.4583 31.0761 34.4343C31.0182 34.4103 30.9655 34.3751 30.9212 34.3307L29.8397 33.2493C29.7797 33.1896 29.7049 33.1469 29.6229 33.1255C29.541 33.1041 29.4549 33.1049 29.3733 33.1276C28.4578 33.3799 27.4918 33.3851 26.5737 33.1425C25.6555 32.9 24.8181 32.4185 24.1466 31.747C23.4751 31.0755 22.9935 30.238 22.751 29.3199C22.5085 28.4017 22.5136 27.4357 22.7659 26.5202C22.7887 26.4387 22.7894 26.3526 22.768 26.2706C22.7467 26.1887 22.704 26.1139 22.6443 26.0539L21.5847 24.9943C21.4952 24.9047 21.445 24.7833 21.445 24.6567C21.445 24.53 21.4952 24.4086 21.5847 24.319L21.5917 24.3122C21.636 24.2679 21.6887 24.2327 21.7466 24.2087C21.8045 24.1847 21.8666 24.1723 21.9293 24.1723C21.992 24.1723 22.0541 24.1847 22.1121 24.2087C22.17 24.2327 22.2226 24.2679 22.267 24.3122L22.843 24.8893C22.892 24.9382 22.9511 24.9759 23.0162 24.9997C23.0813 25.0235 23.1508 25.0329 23.2198 25.0272C23.2889 25.0214 23.3559 25.0008 23.4162 24.9666C23.4764 24.9324 23.5286 24.8855 23.5689 24.8291L23.5745 24.8213C23.6402 24.7294 23.6712 24.6171 23.6619 24.5046C23.6527 24.392 23.6037 24.2863 23.5239 24.2064L21.5646 22.2463C21.4751 22.1567 21.4248 22.0353 21.4248 21.9087C21.4248 21.782 21.4751 21.6606 21.5646 21.571L21.5716 21.5642C21.6159 21.5199 21.6685 21.4847 21.7265 21.4607C21.7844 21.4367 21.8465 21.4243 21.9092 21.4243C21.9719 21.4243 22.034 21.4367 22.0919 21.4607C22.1499 21.4847 22.2025 21.5199 22.2468 21.5642L24.2068 23.5242C24.2867 23.6041 24.3923 23.653 24.5049 23.6623C24.6175 23.6716 24.7297 23.6407 24.8216 23.575L24.8296 23.5693C24.886 23.5289 24.9329 23.4768 24.9671 23.4165C25.0013 23.3563 25.022 23.2893 25.0277 23.2202C25.0334 23.1511 25.024 23.0816 25.0002 23.0166C24.9763 22.9515 24.9386 22.8924 24.8896 22.8433L23.9785 21.9322C23.9342 21.8879 23.899 21.8353 23.875 21.7773C23.851 21.7194 23.8386 21.6573 23.8386 21.5946C23.8386 21.5319 23.851 21.4698 23.875 21.4119C23.899 21.3539 23.9342 21.3013 23.9785 21.257L23.9853 21.2501C24.0297 21.2058 24.0823 21.1706 24.1403 21.1466C24.1982 21.1226 24.2603 21.1102 24.323 21.1102C24.3858 21.1102 24.4479 21.1226 24.5058 21.1466C24.5638 21.1706 24.6164 21.2058 24.6607 21.2501L26.0545 22.6439C26.1146 22.7036 26.1894 22.7463 26.2714 22.7677C26.3533 22.789 26.4395 22.7883 26.521 22.7656C27.4365 22.5135 28.4024 22.5085 29.3204 22.7511C30.2384 22.9937 31.0757 23.4753 31.7471 24.1467C32.4185 24.8182 32.8999 25.6556 33.1425 26.5736C33.385 27.4916 33.3799 28.4575 33.1277 29.373C33.105 29.4545 33.1043 29.5407 33.1257 29.6226C33.1471 29.7045 33.1898 29.7793 33.2495 29.8393L34.8311 31.4211C34.8755 31.4654 34.9106 31.5181 34.9346 31.576C34.9586 31.6339 34.971 31.696 34.971 31.7587C34.971 31.8214 34.9586 31.8834 34.9346 31.9414C34.9106 31.9993 34.8755 32.0519 34.8311 32.0962" fill="#F3FA2F"/>
<path d="M17.1083 16.4254L16.9708 16.2879C16.8792 16.2041 16.7587 16.1589 16.6346 16.1617C16.5104 16.1645 16.3922 16.2151 16.3044 16.3029C16.2166 16.3907 16.166 16.509 16.1632 16.6331C16.1604 16.7573 16.2056 16.8777 16.2893 16.9694L16.4267 17.1068C16.4706 17.155 16.5239 17.1937 16.5832 17.2206C16.6426 17.2476 16.7068 17.2622 16.7719 17.2637C16.8371 17.2652 16.9019 17.2534 16.9623 17.2292C17.0228 17.2049 17.0778 17.1686 17.1239 17.1226C17.17 17.0765 17.2062 17.0215 17.2305 16.961C17.2548 16.9005 17.2665 16.8358 17.265 16.7706C17.2636 16.7054 17.2489 16.6413 17.2219 16.5819C17.195 16.5226 17.1564 16.4693 17.1083 16.4254Z" fill="#F3FA2F"/>
<path d="M39.6019 38.94L39.4645 38.8025C39.4205 38.7544 39.3672 38.7157 39.3079 38.6887C39.2486 38.6618 39.1844 38.6471 39.1192 38.6456C39.0541 38.6442 38.9893 38.6559 38.9288 38.6802C38.8683 38.7044 38.8133 38.7407 38.7673 38.7868C38.7212 38.8329 38.6849 38.8878 38.6606 38.9483C38.6364 39.0088 38.6246 39.0736 38.6261 39.1387C38.6276 39.2039 38.6422 39.2681 38.6692 39.3274C38.6962 39.3868 38.7349 39.44 38.783 39.484L38.9205 39.6215C38.9644 39.6696 39.0177 39.7083 39.077 39.7353C39.1364 39.7622 39.2005 39.7769 39.2657 39.7784C39.3309 39.7798 39.3956 39.7681 39.4561 39.7438C39.5166 39.7195 39.5716 39.6833 39.6177 39.6372C39.6637 39.5911 39.7 39.5362 39.7243 39.4757C39.7485 39.4152 39.7603 39.3504 39.7588 39.2852C39.7574 39.2201 39.7427 39.1559 39.7157 39.0965C39.6888 39.0372 39.6501 38.984 39.6019 38.94Z" fill="#F3FA2F"/>
</g>
<path d="M72 24C72 10.7452 82.7452 0 96 0H196C198.209 0 200 1.79086 200 4V52C200 54.2091 198.209 56 196 56H96C82.7452 56 72 45.2548 72 32V24Z" fill="#B1C7EF"/>
<rect x="72" width="56" height="56" rx="24" fill="#607CE7"/>
<g clip-path="url(#clip1_2728_13568)">
<path d="M100 46.6006C109.941 46.6006 118 38.5417 118 28.6006C118 18.6595 109.941 10.6006 100 10.6006C90.0589 10.6006 82 18.6595 82 28.6006C82 38.5417 90.0589 46.6006 100 46.6006Z" fill="#607CE7"/>
<path d="M99.9998 19.9917L99.8848 20.3837V31.7687L99.9998 31.8837L105.285 28.7597L99.9998 19.9917Z" fill="white"/>
<path d="M99.9998 19.9917L94.7148 28.7607L99.9998 31.8847V19.9917Z" fill="white"/>
<path d="M100.001 32.8847L99.9355 32.9637V37.0197L100.001 37.2097L105.289 29.7627L100.001 32.8847Z" fill="white"/>
<path d="M99.9998 37.2097V32.8847L94.7148 29.7627L99.9998 37.2097Z" fill="white"/>
<path d="M100 31.8839L105.285 28.7599L100 26.3599V31.8839Z" fill="white"/>
<path d="M94.7139 28.7609L99.9989 31.8849V26.3589L94.7139 28.7609Z" fill="white"/>
</g>
<path d="M216 4C216 1.79086 217.791 0 220 0H268C270.209 0 272 1.79086 272 4V52C272 54.2091 270.209 56 268 56H220C217.791 56 216 54.2091 216 52V4Z" fill="#6EB22F"/>
<g clip-path="url(#clip2_2728_13568)">
<path d="M244 45.2002C253.941 45.2002 262 37.1413 262 27.2002C262 17.2591 253.941 9.2002 244 9.2002C234.059 9.2002 226 17.2591 226 27.2002C226 37.1413 234.059 45.2002 244 45.2002Z" fill="#6EB22F"/>
<mask id="mask0_2728_13568" style="mask-type:luminance" maskUnits="userSpaceOnUse" x="237" y="17" width="14" height="20">
<path d="M250.196 17.4624H237.803V36.9378H250.196V17.4624Z" fill="white"/>
</mask>
<g mask="url(#mask0_2728_13568)">
<path d="M242.82 36.3262L243.722 29.8108C243.733 29.7349 243.727 29.6576 243.705 29.5842C243.684 29.5108 243.647 29.4428 243.597 29.385C243.547 29.3272 243.485 29.2808 243.416 29.249C243.346 29.2172 243.271 29.2007 243.195 29.2006H238.336C238.241 29.2006 238.148 29.1751 238.066 29.1266C237.984 29.0782 237.917 29.0086 237.871 28.9251C237.825 28.8416 237.801 28.7472 237.804 28.6517C237.806 28.5562 237.834 28.4631 237.884 28.382L244.492 17.7166C244.556 17.6123 244.654 17.5335 244.77 17.4931C244.885 17.4528 245.01 17.4535 245.125 17.4951C245.24 17.5367 245.337 17.6166 245.4 17.7216C245.464 17.8266 245.489 17.9502 245.472 18.0717L244.515 25.1928C244.505 25.2685 244.511 25.3455 244.533 25.4187C244.555 25.4918 244.592 25.5594 244.642 25.6169C244.692 25.6744 244.754 25.7205 244.823 25.752C244.892 25.7835 244.967 25.7998 245.043 25.7998H249.663C249.758 25.7997 249.852 25.8253 249.934 25.874C250.016 25.9227 250.084 25.9927 250.13 26.0767C250.176 26.1607 250.198 26.2555 250.196 26.3514C250.193 26.4473 250.164 26.5406 250.113 26.6216L243.798 36.6858C243.734 36.7896 243.635 36.8678 243.52 36.9075C243.404 36.9472 243.279 36.9459 243.165 36.9038C243.05 36.8617 242.953 36.7814 242.891 36.6763C242.828 36.5711 242.803 36.4476 242.82 36.3262Z" fill="white"/>
</g>
</g>
<path d="M288 4C288 1.79086 289.791 0 292 0H320C333.255 0 344 10.7452 344 24V52C344 54.2091 342.209 56 340 56H292C289.791 56 288 54.2091 288 52V4Z" fill="#E8FD01"/>
<g clip-path="url(#clip3_2728_13568)">
<path d="M316 46C325.941 46 334 37.9411 334 28C334 18.0589 325.941 10 316 10C306.059 10 298 18.0589 298 28C298 37.9411 306.059 46 316 46Z" fill="#E8FD01"/>
<path d="M320.09 21.5192C316.554 19.4772 316.433 18.9532 314.665 19.9342V19.9282L314.479 20.0402L314.339 20.1212C313.7 20.5072 312.439 21.2612 312.103 21.4532L311.995 21.5152C311.675 21.7002 311.38 21.8662 311.108 22.0152C310.731 22.2252 310.397 22.4072 310.103 22.5702C309.656 22.8162 309.303 23.0172 309.013 23.2022C307.594 24.1302 307.949 24.6762 307.949 28.5282C307.949 32.8452 307.505 33.0102 309.609 34.2042L314.966 37.2772H314.961L315.041 37.3162C315.954 37.7622 316.427 37.6812 317.501 37.0732C318.108 36.7292 320.09 35.5342 320.09 35.5342L322.918 33.6942C322.998 33.6405 323.065 33.5675 323.11 33.4818C323.155 33.396 323.179 33.3003 323.178 33.2033C323.177 33.1062 323.152 33.011 323.105 32.9261C323.058 32.8412 322.991 32.7694 322.909 32.7172C322.83 32.6669 322.738 32.6402 322.645 32.6402C322.551 32.6402 322.459 32.6669 322.381 32.7172L318.007 35.5172C317.6 35.7632 317.275 35.9572 316.998 36.0992C315.804 36.7882 316.198 36.7312 314.971 36.0262L310.601 33.5232C308.891 32.5652 308.963 32.3932 309.014 29.8792V27.1792C308.998 26.4022 308.981 25.8492 309.014 25.4282C309.019 25.0842 309.125 24.7494 309.319 24.4651C309.513 24.1808 309.786 23.9594 310.104 23.8282C310.371 23.6642 310.704 23.4832 311.109 23.2582C311.4 23.0992 311.73 22.9172 312.104 22.7062C312.24 22.6249 312.384 22.5405 312.536 22.4532C312.775 22.3162 314.409 21.3412 314.654 21.1922L314.665 21.1862C316.377 20.1942 316.367 20.6172 319.549 22.4532C323.349 24.6532 323.126 23.9052 323.065 27.4932C323.063 27.6221 323.01 27.7451 322.918 27.8356C322.826 27.9261 322.703 27.977 322.574 27.9772H322.474C322.408 27.9771 322.344 27.964 322.284 27.9387C322.224 27.9134 322.169 27.8765 322.124 27.8299C322.078 27.7834 322.042 27.7283 322.018 27.6677C321.993 27.6072 321.982 27.5424 321.983 27.4772C322.037 24.6462 322.159 25.2142 319.008 23.3952C316.15 21.7452 316.338 21.4442 314.589 22.4952H314.584L313.084 23.3952C312.716 23.6072 312.393 23.7872 312.109 23.9442C311.702 24.1682 311.376 24.3442 311.114 24.5002C310.402 24.9242 310.173 25.1942 310.114 25.8582C310.114 25.8752 310.114 25.8932 310.114 25.9102V27.4902C310.119 27.7952 310.125 28.1392 310.125 28.5302C310.125 28.9212 310.12 29.2652 310.114 29.5702C310.069 31.9462 309.973 31.9382 311.78 32.9332L315.034 34.8132C316.091 35.4442 316.003 35.5082 317.061 34.8972L321.061 32.3622C321.131 32.3176 321.189 32.2558 321.229 32.1826C321.269 32.1095 321.289 32.0274 321.289 31.944C321.288 31.8607 321.266 31.7789 321.225 31.7064C321.184 31.6338 321.126 31.5728 321.055 31.5292L321.001 31.4962C320.923 31.4476 320.833 31.4219 320.741 31.4219C320.649 31.4219 320.56 31.4476 320.482 31.4962C319.697 31.9962 317.374 33.4672 317.111 33.6222C316.087 34.2222 316.171 34.2942 315.154 33.7072L312.728 32.3072C311.024 31.3742 311.069 31.4532 311.109 29.5242V27.5332C311.099 27.0212 311.088 26.6512 311.109 26.3652C311.157 25.7252 311.366 25.5122 312.104 25.0912C312.349 24.9532 314.589 23.6662 314.589 23.6662C316.309 22.6232 316.009 22.8232 318.509 24.2652C321.051 25.7332 321.028 25.3292 320.983 27.4652C320.983 27.5922 320.937 27.715 320.853 27.8102C320.769 27.9053 320.653 27.9662 320.527 27.9812C320.458 27.9862 320.39 27.977 320.326 27.954C320.261 27.931 320.202 27.8948 320.153 27.8477C320.103 27.8007 320.064 27.7437 320.037 27.6806C320.011 27.6175 319.998 27.5496 320 27.4812C320.03 25.9982 319.968 26.2492 318.016 25.1222C315.859 23.8752 316.309 23.7842 314.533 24.8472C314.487 24.8752 313.711 25.3142 313.291 25.5472H313.283C312.667 25.8652 312.374 26.0222 312.233 26.2962C312.158 26.4215 312.114 26.5621 312.103 26.7072C312.103 26.7072 312.103 27.3672 312.103 27.4762V28.3042C312.103 28.3755 312.103 28.4492 312.103 28.5252C312.103 28.9142 312.096 29.2342 312.09 29.5002C312.063 30.8002 312.08 30.8322 313.221 31.4592L313.644 31.6932C313.708 31.7292 314.595 32.2392 314.959 32.4492L314.97 32.4552L315.11 32.5352C316.121 33.0962 316.223 33.0712 317.31 32.4462C317.518 32.3202 318.054 32.0052 318.054 32.0052L319.227 31.2522C319.3 31.2059 319.36 31.1417 319.402 31.0658C319.444 30.9898 319.466 30.9045 319.466 30.8177C319.466 30.731 319.444 30.6456 319.402 30.5697C319.36 30.4937 319.3 30.4296 319.227 30.3832L319.162 30.3422C319.052 30.2731 318.926 30.2364 318.796 30.2364C318.667 30.2364 318.54 30.2731 318.431 30.3422C317.931 30.6572 317.097 31.1902 317.005 31.2422C316.128 31.7712 316.172 31.8642 315.32 31.3702L314.63 30.9702C314.367 30.8182 314.151 30.7012 313.975 30.6042C313.211 30.1832 313.187 30.1412 313.204 29.2692C313.204 29.0692 313.214 28.8232 313.214 28.5182C313.214 28.1902 313.207 27.9312 313.202 27.7182C313.202 27.1182 313.219 26.9122 313.477 26.7122L314.625 26.0642C316.294 25.1012 315.788 25.1012 317.456 26.0642C318.715 26.7912 318.88 26.7202 318.885 27.4642C318.886 27.5294 318.874 27.5942 318.85 27.6547C318.825 27.7153 318.789 27.7704 318.744 27.8169C318.698 27.8635 318.644 27.9004 318.583 27.9257C318.523 27.951 318.459 27.9641 318.394 27.9642H317.04C316.917 27.7412 316.725 27.5652 316.491 27.4639C316.258 27.3627 315.998 27.3419 315.751 27.405C315.505 27.468 315.287 27.6112 315.131 27.8121C314.975 28.0129 314.89 28.2599 314.89 28.5142C314.89 28.7685 314.975 29.0155 315.131 29.2164C315.287 29.4172 315.505 29.5604 315.751 29.6235C315.998 29.6865 316.258 29.6658 316.491 29.5645C316.725 29.4632 316.917 29.2872 317.04 29.0642H323.646C323.776 29.0642 323.901 29.0125 323.993 28.9204C324.085 28.8283 324.137 28.7034 324.137 28.5732V28.5282C324.137 23.0192 324.861 24.2732 320.09 21.5182" fill="black"/>
</g>
<rect y="72" width="56" height="56" rx="24" fill="#2775CA"/>
<g clip-path="url(#clip4_2728_13568)">
<path d="M27.9997 119.864C38.9703 119.864 47.8637 110.971 47.8637 100C47.8637 89.0296 38.9703 80.1362 27.9997 80.1362C17.0292 80.1362 8.13574 89.0296 8.13574 100C8.13574 110.971 17.0292 119.864 27.9997 119.864Z" fill="#2775CA"/>
<path d="M24.2715 113.816C24.2715 114.28 23.8955 114.544 23.4635 114.408C17.4475 112.48 13.1035 106.856 13.1035 100.2C13.1035 93.5601 17.4475 87.9281 23.4715 86.0001C23.9195 85.8641 24.2795 86.1281 24.2795 86.5921V87.7521C24.2795 88.0641 24.0475 88.4161 23.7515 88.5281C18.9835 90.2801 15.5915 94.8561 15.5915 100.2C15.5915 105.552 18.9915 110.12 23.7515 111.856C24.0475 111.968 24.2795 112.32 24.2795 112.632V113.816H24.2715Z" fill="white"/>
<path d="M29.2397 109.512C29.2397 109.856 28.9597 110.136 28.6157 110.136H27.3757C27.0317 110.136 26.7517 109.856 26.7517 109.512V107.56C24.0397 107.184 22.7197 105.68 22.3597 103.6C22.2957 103.24 22.5757 102.936 22.9357 102.936H24.3517C24.6477 102.936 24.8957 103.152 24.9597 103.432C25.2237 104.656 25.9357 105.608 28.1117 105.608C29.7117 105.608 30.8557 104.704 30.8557 103.376C30.8557 102.04 30.1917 101.528 27.8317 101.144C24.3517 100.68 22.7117 99.624 22.7117 96.904C22.7117 94.808 24.3117 93.16 26.7597 92.824V90.896C26.7597 90.552 27.0397 90.272 27.3837 90.272H28.6237C28.9677 90.272 29.2477 90.552 29.2477 90.896V92.864C31.2477 93.224 32.5197 94.352 32.9437 96.248C33.0237 96.608 32.7437 96.928 32.3677 96.928H31.0637C30.7837 96.928 30.5517 96.744 30.4717 96.48C30.1117 95.288 29.2637 94.76 27.7677 94.76C26.1197 94.76 25.2717 95.552 25.2717 96.672C25.2717 97.848 25.7517 98.44 28.2797 98.8C31.6957 99.264 33.4637 100.24 33.4637 103.144C33.4637 105.344 31.8157 107.136 29.2557 107.536V109.52H29.2397V109.512Z" fill="white"/>
<path d="M32.5277 114.4C32.0797 114.536 31.7197 114.272 31.7197 113.808V112.648C31.7197 112.304 31.9197 111.984 32.2477 111.872C36.9997 110.136 40.4077 105.552 40.4077 100.216C40.4077 94.8638 37.0077 90.2958 32.2477 88.5598C31.9517 88.4478 31.7197 88.0958 31.7197 87.7838V86.6238C31.7197 86.1598 32.0957 85.8958 32.5277 86.0318C38.5517 87.9278 42.8957 93.5598 42.8957 100.2C42.8957 106.856 38.5517 112.48 32.5277 114.4Z" fill="white"/>
</g>
<path d="M72 76C72 73.7909 73.7909 72 76 72H124C126.209 72 128 73.7909 128 76V124C128 126.209 126.209 128 124 128H76C73.7909 128 72 126.209 72 124V76Z" fill="#55F3D6"/>
<g clip-path="url(#clip5_2728_13568)">
<path d="M100 117.201C109.941 117.201 118 109.142 118 99.2007C118 89.2596 109.941 81.2007 100 81.2007C90.0589 81.2007 82 89.2596 82 99.2007C82 109.142 90.0589 117.201 100 117.201Z" fill="#55F3D6"/>
<mask id="mask1_2728_13568" style="mask-type:luminance" maskUnits="userSpaceOnUse" x="93" y="89" width="15" height="20">
<path d="M107.672 89.4629H93.2129V108.938H107.672V89.4629Z" fill="white"/>
</mask>
<g mask="url(#mask1_2728_13568)">
<path d="M102.379 102.838V102.831H102.374L102.379 102.838Z" fill="#0B1E43"/>
<path d="M105.554 89.4651C105.417 89.4592 105.28 89.4666 105.145 89.487C103.442 89.7372 102.718 91.7926 103.835 93.0826C103.859 93.1093 103.881 93.136 103.905 93.1627C104.129 93.4012 104.405 93.586 104.71 93.7033C105.015 93.8206 105.343 93.8674 105.669 93.8404C105.995 93.8133 106.31 93.713 106.592 93.5469C106.874 93.3808 107.115 93.1532 107.298 92.8809C108.276 91.4088 107.216 89.5163 105.554 89.4629V89.4651Z" fill="#0B1E43"/>
<path d="M103.769 93.1234C103.363 92.7473 102.903 92.4352 102.403 92.1979C101.362 91.6997 99.7733 91.4836 98.5286 91.6707C95.4459 92.1347 93.6106 94.3162 93.6152 97.5108C93.62 100.03 94.8018 101.922 96.6954 102.826H96.7296H96.7587V102.855C97.9574 103.409 99.437 103.572 101.081 103.256C101.529 103.171 101.963 103.029 102.374 102.833H102.379V102.826H102.389C105.946 101.123 106.656 95.8031 103.769 93.1234ZM101.655 99.2696C100.526 100.776 98.0296 100.538 97.1967 98.8469C96.1045 96.6265 97.8336 94.2944 100.202 94.7972C102.101 95.2005 102.888 97.6225 101.655 99.2696Z" fill="#0B1E43"/>
<path d="M104.151 102.962H102.391L102.381 102.967V102.974L102.357 103.142C102.049 105.263 99.6639 106.32 97.9494 105.095C97.3247 104.648 96.763 103.686 96.763 103.064V102.957C96.7508 102.95 94.988 102.962 94.988 102.962H93.2129L93.225 103.13L93.2347 103.259C93.4405 105.928 95.4482 108.248 98.0101 108.778C98.2741 108.832 98.5356 108.873 98.7923 108.9C99.1036 108.931 99.4165 108.943 99.7294 108.936C99.9255 108.931 100.119 108.919 100.308 108.9C103.287 108.581 105.597 106.378 105.897 103.234L105.924 102.962H104.153H104.151Z" fill="#0B1E43"/>
<path d="M102.381 102.831L102.391 102.826H102.381V102.831Z" fill="#0B1E43"/>
<path d="M96.6982 102.826C96.6982 102.826 96.7127 102.833 96.72 102.836L96.7321 102.826H96.6982Z" fill="#0B1E43"/>
<path d="M96.7309 102.826L96.7188 102.836C96.7332 102.843 96.7453 102.848 96.7598 102.855V102.826H96.7309Z" fill="#0B1E43"/>
</g>
</g>
<path d="M196 72C198.209 72 200 73.7909 200 76L200 124C200 126.209 198.209 128 196 128L168 128C154.745 128 144 117.255 144 104L144 96C144 82.7452 154.745 72 168 72L196 72Z" fill="#E8232B"/>
<g clip-path="url(#clip6_2728_13568)">
<path d="M172 117.8C181.941 117.8 190 109.741 190 99.8003C190 89.8592 181.941 81.8003 172 81.8003C162.059 81.8003 154 89.8592 154 99.8003C154 109.741 162.059 117.8 172 117.8Z" fill="#E8232B"/>
<mask id="mask2_2728_13568" style="mask-type:luminance" maskUnits="userSpaceOnUse" x="163" y="92" width="18" height="16">
<path d="M180.759 92.4233H163.442V107.177H180.759V92.4233Z" fill="white"/>
</mask>
<g mask="url(#mask2_2728_13568)">
<path d="M173.496 99.6398V97.4468H175.742V99.4603C175.742 99.5827 175.742 99.6823 175.572 99.6809C174.914 99.6751 174.256 99.6775 173.599 99.6746C173.563 99.6684 173.528 99.6561 173.496 99.6398Z" fill="white"/>
<path d="M165.661 97.4443H163.45V99.6576H165.661V97.4443Z" fill="white"/>
<path d="M168.171 97.4463H165.948V99.6596H168.171V97.4463Z" fill="white"/>
<path d="M170.713 97.4458H168.492V99.6552H170.713V97.4458Z" fill="white"/>
<path d="M178.257 97.4468H176.036V99.6605H178.257V97.4468Z" fill="white"/>
<path d="M180.758 97.4443H178.543V99.6581H180.758V97.4443Z" fill="white"/>
<path d="M173.213 97.4521H170.995V99.6606H173.213V97.4521Z" fill="white"/>
<path d="M175.726 102.477H173.491V104.683H175.726V102.477Z" fill="white"/>
<path d="M173.484 97.1317C173.484 96.4334 173.487 95.7588 173.484 95.0838C173.484 94.9435 173.544 94.9068 173.672 94.9077C174.349 94.9116 175.023 94.9077 175.721 94.9077V97.1321L173.484 97.1317Z" fill="white"/>
<path d="M168.175 99.9604V102.191C167.47 102.191 166.78 102.195 166.089 102.183C166.037 102.183 165.944 102.07 165.942 102.009C165.932 101.332 165.935 100.658 165.935 99.9604H168.175Z" fill="white"/>
<path d="M175.72 92.4292H173.493V94.6338H175.72V92.4292Z" fill="white"/>
<path d="M178.253 92.4268H176.032V94.627H178.253V92.4268Z" fill="white"/>
<path d="M165.657 94.9272H163.442V97.1405H165.657V94.9272Z" fill="white"/>
<path d="M170.705 94.9258H168.49V97.1337H170.705V94.9258Z" fill="white"/>
<path d="M173.201 94.9263H170.993V97.1338H173.201V94.9263Z" fill="white"/>
<path d="M178.245 94.918H176.038V97.1351H178.245V94.918Z" fill="white"/>
<path d="M180.749 94.9248H178.543V97.1337H180.749V94.9248Z" fill="white"/>
<path d="M170.708 92.4233H168.489V94.6303H170.708V92.4233Z" fill="white"/>
<path d="M168.174 92.4292H165.959V94.6357H168.174V92.4292Z" fill="white"/>
<path d="M176.041 99.9551H178.265C178.265 100.667 178.268 101.365 178.257 102.063C178.257 102.107 178.147 102.187 178.087 102.187C177.413 102.196 176.739 102.193 176.041 102.193V99.9551Z" fill="white"/>
<path d="M173.205 99.9546H170.997V102.173H173.205V99.9546Z" fill="white"/>
<path d="M173.484 99.9546H175.719V102.193C175.02 102.193 174.33 102.197 173.64 102.187C173.605 102.177 173.572 102.158 173.547 102.132C173.521 102.106 173.502 102.074 173.492 102.038C173.48 101.354 173.484 100.672 173.484 99.9546Z" fill="white"/>
<path d="M170.712 102.472H168.49V104.676H170.712V102.472Z" fill="white"/>
<path d="M173.209 102.467H171.002V104.684H173.209V102.467Z" fill="white"/>
<path d="M173.209 104.971H170.998V107.177H173.209V104.971Z" fill="white"/>
<path d="M165.935 97.1381C165.935 96.4316 165.931 95.7556 165.942 95.08C165.952 95.0419 165.972 95.007 165.999 94.9785C166.027 94.9501 166.061 94.9289 166.098 94.9171C166.782 94.906 167.465 94.9098 168.168 94.9098V97.1381H165.935Z" fill="white"/>
<path d="M168.482 102.193V99.9604H170.722V101.34C170.722 101.565 170.733 101.792 170.715 102.017C170.709 102.08 170.618 102.186 170.564 102.187C169.879 102.197 169.196 102.193 168.484 102.193" fill="white"/>
</g>
</g>
<path d="M216 76C216 73.7909 217.791 72 220 72H340C342.209 72 344 73.7909 344 76V104C344 117.255 333.255 128 320 128H220C217.791 128 216 126.209 216 124V76Z" fill="#96E3CE"/>
<path d="M288 76C288 73.7909 289.791 72 292 72H340C342.209 72 344 73.7909 344 76V104C344 117.255 333.255 128 320 128H292C289.791 128 288 126.209 288 124V76Z" fill="#50AF95"/>
<path fill-rule="evenodd" clip-rule="evenodd" d="M302.32 82.7761L295.032 98.0961C294.976 98.2161 295 98.3521 295.096 98.4401L314.792 117.312C314.912 117.424 315.088 117.424 315.208 117.312L334.904 98.4401C335 98.3521 335.024 98.2081 334.968 98.0961L327.68 82.7761C327.632 82.6721 327.528 82.6001 327.408 82.6001H302.592C302.48 82.6001 302.376 82.6641 302.32 82.7761Z" fill="#50AF95"/>
<path fill-rule="evenodd" clip-rule="evenodd" d="M317.528 99.6642C317.384 99.6722 316.656 99.7202 315.024 99.7202C313.728 99.7202 312.808 99.6802 312.488 99.6642C307.48 99.4402 303.736 98.5682 303.736 97.5282C303.736 96.4802 307.472 95.6162 312.488 95.3922V98.8002C312.816 98.8242 313.752 98.8802 315.048 98.8802C316.6 98.8802 317.384 98.8162 317.52 98.8002V95.3922C322.52 95.6162 326.248 96.4882 326.248 97.5282C326.248 98.5682 322.528 99.4402 317.528 99.6642ZM317.528 95.0402V91.9922H324.504V87.3442H305.512V91.9922H312.488V95.0402C306.816 95.3042 302.552 96.4242 302.552 97.7682C302.552 99.1122 306.816 100.232 312.488 100.496V110.264H317.528V100.496C323.184 100.232 327.44 99.1122 327.44 97.7682C327.44 96.4242 323.192 95.3042 317.528 95.0402Z" fill="white"/>
<path fill-rule="evenodd" clip-rule="evenodd" d="M96 160C82.7452 160 72 170.745 72 184V286C72 288.209 73.7909 290 76 290H266C268.209 290 270 288.209 270 286V200H96V196C96 189.373 101.373 184 108 184H270V164C270 161.791 268.209 160 266 160H96Z" fill="#DA4E40"/>
<defs>
<clipPath id="clip0_2728_13568">
<rect width="28.4444" height="28.4444" fill="white" transform="translate(13.7773 13.7778)"/>
</clipPath>
<clipPath id="clip1_2728_13568">
<rect width="36" height="37" fill="white" transform="translate(82 10)"/>
</clipPath>
<clipPath id="clip2_2728_13568">
<rect width="36" height="37" fill="white" transform="translate(226 9)"/>
</clipPath>
<clipPath id="clip3_2728_13568">
<rect width="36" height="36" fill="white" transform="translate(298 10)"/>
</clipPath>
<clipPath id="clip4_2728_13568">
<rect width="40" height="40" fill="white" transform="translate(8 80)"/>
</clipPath>
<clipPath id="clip5_2728_13568">
<rect width="36" height="37" fill="white" transform="translate(82 81)"/>
</clipPath>
<clipPath id="clip6_2728_13568">
<rect width="36" height="37" fill="white" transform="translate(154 81)"/>
</clipPath>
</defs>
</svg>
