<svg width="12" height="12" viewBox="0 0 12 12" fill="none" xmlns="http://www.w3.org/2000/svg">
<g clip-path="url(#clip0_336_4046)">
<path d="M0.0333335 8.28333C-0.0888887 8.16111 -0.155555 8.02222 -0.166667 7.86667C-0.166667 7.7 -0.105555 7.55556 0.0166669 7.43333L3.43333 4.01667C3.66667 3.78333 3.95 3.66667 4.28333 3.66667C4.61667 3.66667 4.9 3.78333 5.13333 4.01667L6.81667 5.7L10.35 2.18333H9C8.83333 2.18333 8.68889 2.12778 8.56667 2.01667C8.45556 1.89444 8.4 1.75 8.4 1.58333C8.4 1.41667 8.45556 1.27778 8.56667 1.16667C8.68889 1.04444 8.83333 0.983333 9 0.983333H11.8C11.9667 0.983333 12.1056 1.04444 12.2167 1.16667C12.3389 1.27778 12.4 1.41667 12.4 1.58333V4.38333C12.4 4.55 12.3389 4.69444 12.2167 4.81667C12.1056 4.92778 11.9667 4.98333 11.8 4.98333C11.6333 4.98333 11.4889 4.92778 11.3667 4.81667C11.2556 4.70556 11.2 4.56667 11.2 4.4V3.03333L7.66667 6.56667C7.43333 6.8 7.15 6.91667 6.81667 6.91667C6.48333 6.91667 6.2 6.8 5.96667 6.56667L4.28333 4.86667L0.883333 8.28333C0.761111 8.40556 0.616667 8.46667 0.45 8.46667C0.294444 8.46667 0.155556 8.40556 0.0333335 8.28333Z" fill="currentColor"/>
</g>
<defs>
<clipPath id="clip0_336_4046">
<rect width="12" height="12" fill="white"/>
</clipPath>
</defs>
</svg>
