<svg width="20" height="20" viewBox="0 0 20 20" fill="none" xmlns="http://www.w3.org/2000/svg">
<path d="M10 3.34375C13.6875 3.34375 16.6562 6.3125 16.6562 10C16.6562 13.6875 13.6875 16.6562 10 16.6562C6.3125 16.6562 3.34375 13.6875 3.34375 10C3.34375 6.3125 6.3125 3.34375 10 3.34375ZM10 13.3438C10.375 13.3438 10.6562 13.0312 10.6562 12.6562V10C10.6562 9.625 10.375 9.34375 10 9.34375C9.625 9.34375 9.34375 9.625 9.34375 10V12.6562C9.34375 13.0312 9.625 13.3438 10 13.3438ZM10.6562 8V6.65625H9.34375V8H10.6562Z" fill="currentColor"/>
</svg>
