<svg width="22" height="24" viewBox="0 0 22 24" fill="none" xmlns="http://www.w3.org/2000/svg">
<path d="M9.5 10C9.5 10.3438 9.53125 10.6562 9.59375 10.9688C9.65625 11.2188 9.59375 11.4688 9.40625 11.6562L4.5 16.5625V19H6.5V17.75C6.5 17.3438 6.8125 17 7.25 17H8.5V15.75C8.5 15.3438 8.8125 15 9.25 15H10.9375L11.8438 14.0938C12.0312 13.9062 12.2812 13.8438 12.5312 13.9062C12.8438 13.9688 13.1562 14 13.5 14C15.6875 14 17.5 12.2188 17.5 10C17.5 7.8125 15.6875 6 13.5 6C11.2812 6 9.5 7.8125 9.5 10ZM13.5 4.5C16.5312 4.5 19 6.96875 19 10C19 13.0625 16.5312 15.5 13.5 15.5C13.1875 15.5 12.9062 15.5 12.625 15.4375L11.7812 16.2812C11.625 16.4375 11.4375 16.5 11.25 16.5H10V17.75C10 18.1875 9.65625 18.5 9.25 18.5H8V19.75C8 20.1875 7.65625 20.5 7.25 20.5H3.75C3.3125 20.5 3 20.1875 3 19.75V16.25C3 16.0625 3.0625 15.875 3.21875 15.7188L8.0625 10.875C8 10.5938 8 10.3125 8 10C8 6.96875 10.4375 4.5 13.5 4.5ZM14.5 10C13.9375 10 13.5 9.5625 13.5 9C13.5 8.46875 13.9375 8 14.5 8C15.0312 8 15.5 8.46875 15.5 9C15.5 9.5625 15.0312 10 14.5 10Z" fill="currentColor" fill-opacity="0.56"/>
</svg>
