<svg width="40" height="40" viewBox="0 0 40 40" fill="none" xmlns="http://www.w3.org/2000/svg">
<g clip-path="url(#clip0_1113_6647)">
<path d="M20 24.875C21.35 24.875 22.5 24.4 23.45 23.45C24.4 22.5 24.875 21.35 24.875 20C24.875 18.65 24.4 17.5 23.45 16.55C22.5 15.6 21.35 15.125 20 15.125C18.65 15.125 17.5 15.6 16.55 16.55C15.6 17.5 15.125 18.65 15.125 20C15.125 21.35 15.6 22.5 16.55 23.45C17.5 24.4 18.65 24.875 20 24.875ZM20 27.5C17.925 27.5 16.15 26.775 14.675 25.325C13.225 23.85 12.5 22.075 12.5 20C12.5 17.925 13.225 16.1625 14.675 14.7125C16.15 13.2375 17.925 12.5 20 12.5C22.075 12.5 23.8375 13.2375 25.2875 14.7125C26.7625 16.1625 27.5 17.925 27.5 20C27.5 22.075 26.7625 23.85 25.2875 25.325C23.8375 26.775 22.075 27.5 20 27.5ZM4.8125 21.3125C4.4375 21.3125 4.125 21.1875 3.875 20.9375C3.625 20.6875 3.5 20.375 3.5 20C3.5 19.625 3.625 19.3125 3.875 19.0625C4.125 18.8125 4.4375 18.6875 4.8125 18.6875H8.1875C8.5625 18.6875 8.875 18.8125 9.125 19.0625C9.375 19.3125 9.5 19.625 9.5 20C9.5 20.375 9.375 20.6875 9.125 20.9375C8.875 21.1875 8.5625 21.3125 8.1875 21.3125H4.8125ZM31.8125 21.3125C31.4375 21.3125 31.125 21.1875 30.875 20.9375C30.625 20.6875 30.5 20.375 30.5 20C30.5 19.625 30.625 19.3125 30.875 19.0625C31.125 18.8125 31.4375 18.6875 31.8125 18.6875H35.1875C35.5625 18.6875 35.875 18.8125 36.125 19.0625C36.375 19.3125 36.5 19.625 36.5 20C36.5 20.375 36.375 20.6875 36.125 20.9375C35.875 21.1875 35.5625 21.3125 35.1875 21.3125H31.8125ZM20 9.5C19.625 9.5 19.3125 9.375 19.0625 9.125C18.8125 8.875 18.6875 8.5625 18.6875 8.1875V4.8125C18.6875 4.4375 18.8125 4.125 19.0625 3.875C19.3125 3.625 19.625 3.5 20 3.5C20.375 3.5 20.6875 3.625 20.9375 3.875C21.1875 4.125 21.3125 4.4375 21.3125 4.8125V8.1875C21.3125 8.5625 21.1875 8.875 20.9375 9.125C20.6875 9.375 20.375 9.5 20 9.5ZM20 36.5C19.625 36.5 19.3125 36.375 19.0625 36.125C18.8125 35.875 18.6875 35.5625 18.6875 35.1875V31.8125C18.6875 31.4375 18.8125 31.125 19.0625 30.875C19.3125 30.625 19.625 30.5 20 30.5C20.375 30.5 20.6875 30.625 20.9375 30.875C21.1875 31.125 21.3125 31.4375 21.3125 31.8125V35.1875C21.3125 35.5625 21.1875 35.875 20.9375 36.125C20.6875 36.375 20.375 36.5 20 36.5ZM10.7375 12.575L8.8625 10.7375C8.6125 10.4875 8.4875 10.175 8.4875 9.8C8.4875 9.425 8.6125 9.1125 8.8625 8.8625C9.1125 8.5875 9.425 8.45 9.8 8.45C10.175 8.45 10.4875 8.5875 10.7375 8.8625L12.575 10.7375C12.825 10.9875 12.95 11.2875 12.95 11.6375C12.95 11.9875 12.825 12.3 12.575 12.575C12.35 12.825 12.05 12.95 11.675 12.95C11.325 12.925 11.0125 12.8 10.7375 12.575ZM29.2625 31.1375L27.425 29.2625C27.2 28.9875 27.0875 28.675 27.0875 28.325C27.0875 27.975 27.2 27.675 27.425 27.425C27.675 27.15 27.975 27.025 28.325 27.05C28.7 27.05 29.0125 27.175 29.2625 27.425L31.1375 29.2625C31.4125 29.5125 31.5375 29.825 31.5125 30.2C31.5125 30.575 31.3875 30.8875 31.1375 31.1375C30.8875 31.3875 30.575 31.5125 30.2 31.5125C29.825 31.5125 29.5125 31.3875 29.2625 31.1375ZM27.425 12.575C27.175 12.325 27.05 12.025 27.05 11.675C27.05 11.3 27.175 10.9875 27.425 10.7375L29.2625 8.8625C29.5125 8.5875 29.825 8.4625 30.2 8.4875C30.575 8.4875 30.8875 8.6125 31.1375 8.8625C31.4125 9.1125 31.55 9.425 31.55 9.8C31.55 10.175 31.4125 10.4875 31.1375 10.7375L29.2625 12.575C29.0125 12.8 28.7125 12.9125 28.3625 12.9125C28.0125 12.9125 27.7 12.8 27.425 12.575ZM8.8625 31.1375C8.6125 30.8875 8.4875 30.575 8.4875 30.2C8.4875 29.825 8.6125 29.5125 8.8625 29.2625L10.7375 27.425C10.9875 27.175 11.2875 27.05 11.6375 27.05C12.0125 27.05 12.325 27.175 12.575 27.425C12.85 27.675 12.975 27.975 12.95 28.325C12.95 28.675 12.825 28.9875 12.575 29.2625L10.7375 31.1375C10.4875 31.3875 10.175 31.5125 9.8 31.5125C9.425 31.5125 9.1125 31.3875 8.8625 31.1375Z" fill="currentColor"/>
</g>
<defs>
<clipPath id="clip0_1113_6647">
<rect width="40" height="40" fill="white"/>
</clipPath>
</defs>
</svg>
