<svg width="16" height="12" viewBox="0 0 16 12" fill="none" xmlns="http://www.w3.org/2000/svg">
<path d="M10 12C8.33333 12 6.91667 11.4167 5.75 10.25C4.58333 9.08333 4 7.66667 4 6C4 4.33333 4.58333 2.91667 5.75 1.75C6.91667 0.583332 8.33333 -1.43051e-06 10 -1.43051e-06C11.6667 -1.43051e-06 13.0833 0.583332 14.25 1.75C15.4167 2.91667 16 4.33333 16 6C16 7.66667 15.4167 9.08333 14.25 10.25C13.0833 11.4167 11.6667 12 10 12ZM3.95833 11.6458C2.76389 11.2014 1.80556 10.4653 1.08333 9.4375C0.361111 8.40972 1.78814e-07 7.26389 1.78814e-07 6C1.78814e-07 4.73611 0.354167 3.59028 1.0625 2.5625C1.78472 1.52083 2.75 0.79861 3.95833 0.395833C4.22222 0.312499 4.45833 0.347221 4.66667 0.499999C4.88889 0.652777 5 0.86111 5 1.125C5 1.26389 4.96528 1.39583 4.89583 1.52083C4.82639 1.63194 4.72222 1.70833 4.58333 1.75C3.66667 2.05555 2.92361 2.59722 2.35417 3.375C1.78472 4.15278 1.5 5.02778 1.5 6C1.5 6.95833 1.78472 7.82639 2.35417 8.60417C2.92361 9.38194 3.66667 9.9375 4.58333 10.2708C4.70833 10.3264 4.80556 10.4097 4.875 10.5208C4.95833 10.6319 5 10.7569 5 10.8958C5 11.1736 4.88889 11.3958 4.66667 11.5625C4.44444 11.7292 4.20833 11.7569 3.95833 11.6458ZM10 10.5C11.25 10.5 12.3125 10.0625 13.1875 9.1875C14.0625 8.3125 14.5 7.25 14.5 6C14.5 4.75 14.0625 3.6875 13.1875 2.8125C12.3125 1.9375 11.25 1.5 10 1.5C8.75 1.5 7.6875 1.9375 6.8125 2.8125C5.9375 3.6875 5.5 4.75 5.5 6C5.5 7.25 5.9375 8.3125 6.8125 9.1875C7.6875 10.0625 8.75 10.5 10 10.5Z" fill="currentColor"/>
</svg>
