<svg width="24" height="24" viewBox="0 0 24 24" fill="none" xmlns="http://www.w3.org/2000/svg">
<path d="M6.25 20.3333C5.76389 20.3333 5.34722 20.1667 5 19.8333C4.66667 19.4861 4.5 19.0694 4.5 18.5833V16.2083C4.5 15.7222 4.66667 15.3125 5 14.9792C5.34722 14.6319 5.76389 14.4583 6.25 14.4583H7V12.875C7 12.3889 7.16667 11.9792 7.5 11.6458C7.84722 11.2986 8.26389 11.125 8.75 11.125H11.125V9.54167H10.375C9.88889 9.54167 9.47222 9.375 9.125 9.04167C8.79167 8.69444 8.625 8.27778 8.625 7.79167V5.41667C8.625 4.93055 8.79167 4.52083 9.125 4.1875C9.47222 3.84028 9.88889 3.66667 10.375 3.66667H13.625C14.1111 3.66667 14.5208 3.84028 14.8542 4.1875C15.2014 4.52083 15.375 4.93055 15.375 5.41667V7.79167C15.375 8.27778 15.2014 8.69444 14.8542 9.04167C14.5208 9.375 14.1111 9.54167 13.625 9.54167H12.875V11.125H15.25C15.7361 11.125 16.1458 11.2986 16.4792 11.6458C16.8264 11.9792 17 12.3889 17 12.875V14.4583H17.75C18.2361 14.4583 18.6458 14.6319 18.9792 14.9792C19.3264 15.3125 19.5 15.7222 19.5 16.2083V18.5833C19.5 19.0694 19.3264 19.4861 18.9792 19.8333C18.6458 20.1667 18.2361 20.3333 17.75 20.3333H14.5C14.0139 20.3333 13.5972 20.1667 13.25 19.8333C12.9167 19.4861 12.75 19.0694 12.75 18.5833V16.2083C12.75 15.7222 12.9167 15.3125 13.25 14.9792C13.5972 14.6319 14.0139 14.4583 14.5 14.4583H15.25V12.875H8.75V14.4583H9.5C9.98611 14.4583 10.3958 14.6319 10.7292 14.9792C11.0764 15.3125 11.25 15.7222 11.25 16.2083V18.5833C11.25 19.0694 11.0764 19.4861 10.7292 19.8333C10.3958 20.1667 9.98611 20.3333 9.5 20.3333H6.25ZM10.375 7.79167H13.625V5.41667H10.375V7.79167ZM6.25 18.5833H9.5V16.2083H6.25V18.5833ZM14.5 18.5833H17.75V16.2083H14.5V18.5833Z" fill="currentColor"/>
</svg>
