<svg width="17" height="16" viewBox="0 0 17 16" fill="none" xmlns="http://www.w3.org/2000/svg">
<g clip-path="url(#clip0_391_1123)">
<path d="M3 15C2.58333 15 2.22917 14.8542 1.9375 14.5625C1.64583 14.2708 1.5 13.9167 1.5 13.5V2.5C1.5 2.08333 1.64583 1.72917 1.9375 1.4375C2.22917 1.14583 2.58333 1 3 1H7.75C7.95833 1 8.13195 1.07639 8.27083 1.22917C8.42361 1.36805 8.5 1.54167 8.5 1.75C8.5 1.95833 8.42361 2.13889 8.27083 2.29167C8.13195 2.43055 7.95833 2.5 7.75 2.5H3V13.5H14V8.75C14 8.54167 14.0694 8.36805 14.2083 8.22917C14.3611 8.07639 14.5417 8 14.75 8C14.9583 8 15.1319 8.07639 15.2708 8.22917C15.4236 8.36805 15.5 8.54167 15.5 8.75V13.5C15.5 13.9167 15.3542 14.2708 15.0625 14.5625C14.7708 14.8542 14.4167 15 14 15H3ZM14 3.5625L7.08333 10.4792C6.93056 10.6319 6.75695 10.7083 6.5625 10.7083C6.36806 10.6944 6.19445 10.6111 6.04167 10.4583C5.88889 10.3056 5.8125 10.1319 5.8125 9.9375C5.8125 9.72917 5.88889 9.54861 6.04167 9.39583L12.9375 2.5H11.25C11.0417 2.5 10.8611 2.43055 10.7083 2.29167C10.5694 2.13889 10.5 1.95833 10.5 1.75C10.5 1.54167 10.5694 1.36805 10.7083 1.22917C10.8611 1.07639 11.0417 1 11.25 1H15.5V5.25C15.5 5.45833 15.4236 5.63889 15.2708 5.79167C15.1319 5.93055 14.9583 6 14.75 6C14.5417 6 14.3611 5.93055 14.2083 5.79167C14.0694 5.63889 14 5.45833 14 5.25V3.5625Z" fill="currentColor"/>
</g>
<defs>
<clipPath id="clip0_391_1123">
<rect width="16" height="16" fill="white" transform="translate(0.5)"/>
</clipPath>
</defs>
</svg>
