<svg width="14" height="16" viewBox="0 0 14 16" fill="none" xmlns="http://www.w3.org/2000/svg">
<path d="M1.5 16C1.08333 16 0.729167 15.8542 0.4375 15.5625C0.145834 15.2708 1.19209e-07 14.9167 1.19209e-07 14.5V3.5C1.19209e-07 3.08333 0.145834 2.72917 0.4375 2.4375C0.729167 2.14583 1.08333 2 1.5 2H5.0625C5.17361 1.56944 5.40278 1.21528 5.75 0.937499C6.11111 0.645832 6.52778 0.499999 7 0.499999C7.47222 0.499999 7.88195 0.645832 8.22917 0.937499C8.59028 1.21528 8.82639 1.56944 8.9375 2H12.5C12.9167 2 13.2708 2.14583 13.5625 2.4375C13.8542 2.72917 14 3.08333 14 3.5V14.5C14 14.9167 13.8542 15.2708 13.5625 15.5625C13.2708 15.8542 12.9167 16 12.5 16H1.5ZM1.5 14.5H12.5V3.5H11V5.25C11 5.45833 10.9236 5.63889 10.7708 5.79167C10.6319 5.93055 10.4583 6 10.25 6H3.75C3.54167 6 3.36111 5.93055 3.20833 5.79167C3.06944 5.63889 3 5.45833 3 5.25V3.5H1.5V14.5ZM7 3.5C7.20833 3.5 7.38194 3.43055 7.52083 3.29167C7.67361 3.13889 7.75 2.95833 7.75 2.75C7.75 2.54167 7.67361 2.36805 7.52083 2.22917C7.38194 2.07639 7.20833 2 7 2C6.79167 2 6.61111 2.07639 6.45833 2.22917C6.31945 2.36805 6.25 2.54167 6.25 2.75C6.25 2.95833 6.31945 3.13889 6.45833 3.29167C6.61111 3.43055 6.79167 3.5 7 3.5Z" fill="currentColor"/>
</svg>
