<svg width="48" height="48" viewBox="0 0 48 48" fill="none" xmlns="http://www.w3.org/2000/svg">
<g clip-path="url(#clip0_2141_12317)">
<path d="M8.55417 38.6667C7.79028 38.6667 7.11806 38.3764 6.5375 37.7958C5.95694 37.2153 5.66667 36.5431 5.66667 35.7792V12.2208C5.66667 11.4569 5.95694 10.7847 6.5375 10.2042C7.11806 9.62361 7.79028 9.33333 8.55417 9.33333H39.4458C40.2097 9.33333 40.8819 9.62361 41.4625 10.2042C42.0431 10.7847 42.3333 11.4569 42.3333 12.2208V35.7792C42.3333 36.5431 42.0431 37.2153 41.4625 37.7958C40.8819 38.3764 40.2097 38.6667 39.4458 38.6667H8.55417ZM8.55417 35.7792H39.4458V12.2208H8.55417V35.7792ZM8.55417 35.7792V12.2208V35.7792ZM14.375 29.7292C14.6806 29.7292 14.925 29.6375 15.1083 29.4542C15.2917 29.2708 15.3833 29.0417 15.3833 28.7667V19.325C15.3833 19.0194 15.2764 18.775 15.0625 18.5917C14.8486 18.3778 14.5889 18.2708 14.2833 18.2708C14.1306 18.2708 14.0083 18.2861 13.9167 18.3167C13.825 18.3472 13.7181 18.3931 13.5958 18.4542L11.3042 20.0125C11.0903 20.1653 10.9528 20.3639 10.8917 20.6083C10.8306 20.8222 10.8764 21.0361 11.0292 21.25C11.1819 21.4944 11.3806 21.6472 11.625 21.7083C11.8694 21.7389 12.0986 21.6778 12.3125 21.525L13.4125 20.7917V28.7667C13.4125 29.0417 13.5042 29.2708 13.6875 29.4542C13.8708 29.6375 14.1 29.7292 14.375 29.7292ZM20.3792 29.7292H25.9708C26.2153 29.7292 26.4139 29.6528 26.5667 29.5C26.75 29.3167 26.8417 29.1028 26.8417 28.8583C26.8417 28.6139 26.75 28.4153 26.5667 28.2625C26.4139 28.0792 26.2153 27.9875 25.9708 27.9875H21.9833V27.8958C22.4417 27.4681 22.9153 27.0403 23.4042 26.6125C23.8931 26.1542 24.3208 25.7417 24.6875 25.375C25.3292 24.7944 25.8181 24.2292 26.1542 23.6792C26.4903 23.0986 26.6583 22.4264 26.6583 21.6625C26.6583 20.6847 26.3222 19.875 25.65 19.2333C24.9778 18.5917 24.1222 18.2708 23.0833 18.2708C22.35 18.2708 21.7083 18.4083 21.1583 18.6833C20.6083 18.9583 20.1653 19.3556 19.8292 19.875C19.6764 20.0583 19.6458 20.2722 19.7375 20.5167C19.8597 20.7611 20.0431 20.9292 20.2875 21.0208C20.5319 21.1431 20.7764 21.1736 21.0208 21.1125C21.2653 21.0208 21.4944 20.8986 21.7083 20.7458C21.8917 20.5931 22.1056 20.4708 22.35 20.3792C22.5944 20.2569 22.8389 20.1958 23.0833 20.1958C23.6028 20.1958 24.0153 20.3486 24.3208 20.6542C24.6264 20.9292 24.7792 21.2806 24.7792 21.7083C24.7792 22.2583 24.6417 22.7319 24.3667 23.1292C24.0917 23.5264 23.7097 23.9542 23.2208 24.4125C22.9153 24.7181 22.6097 25.0083 22.3042 25.2833C22.0292 25.5278 21.7389 25.7875 21.4333 26.0625L19.7375 27.6667C19.6764 27.7278 19.5847 27.9417 19.4625 28.3083V28.8125C19.4625 29.0569 19.5542 29.2708 19.7375 29.4542C19.9208 29.6375 20.1347 29.7292 20.3792 29.7292ZM33.7167 29.7292C34.8167 29.7292 35.7181 29.4542 36.4208 28.9042C37.1236 28.3542 37.475 27.5292 37.475 26.4292C37.475 25.6958 37.2764 25.1 36.8792 24.6417C36.5125 24.1528 36.0236 23.8472 35.4125 23.725C35.9625 23.5111 36.375 23.2056 36.65 22.8083C36.925 22.4111 37.0625 21.8917 37.0625 21.25C37.0625 20.3333 36.7417 19.6153 36.1 19.0958C35.4583 18.5458 34.6333 18.2708 33.625 18.2708C33.075 18.2708 32.5403 18.4083 32.0208 18.6833C31.5014 18.9278 31.0431 19.2792 30.6458 19.7375C30.4931 19.9208 30.4625 20.1194 30.5542 20.3333C30.6458 20.5472 30.7986 20.7153 31.0125 20.8375C31.2264 20.9597 31.4403 21.0056 31.6542 20.975C31.8986 20.9139 32.1125 20.8069 32.2958 20.6542C32.5097 20.5014 32.7236 20.3792 32.9375 20.2875C33.1514 20.1958 33.3806 20.15 33.625 20.15C34.0833 20.15 34.45 20.2875 34.725 20.5625C35.0306 20.8069 35.1833 21.1431 35.1833 21.5708C35.1833 22.0597 35 22.4111 34.6333 22.625C34.2972 22.8083 33.8542 22.9 33.3042 22.9C33.0597 22.9 32.8458 22.9917 32.6625 23.175C32.5097 23.3583 32.4333 23.5569 32.4333 23.7708C32.4333 24.0153 32.5097 24.2292 32.6625 24.4125C32.8458 24.5958 33.0597 24.6875 33.3042 24.6875C33.8847 24.6875 34.4042 24.8403 34.8625 25.1458C35.3514 25.4208 35.5958 25.8486 35.5958 26.4292C35.5958 26.9486 35.4125 27.3611 35.0458 27.6667C34.7097 27.9417 34.2667 28.0792 33.7167 28.0792C33.35 28.0792 32.9986 27.9875 32.6625 27.8042C32.3569 27.6208 32.0819 27.3764 31.8375 27.0708C31.6847 26.8875 31.5014 26.7653 31.2875 26.7042C31.1042 26.6125 30.9056 26.6125 30.6917 26.7042C30.4472 26.7958 30.2792 26.9486 30.1875 27.1625C30.0958 27.3458 30.0958 27.5444 30.1875 27.7583C30.5236 28.3694 30.9667 28.8583 31.5167 29.225C32.0972 29.5611 32.8306 29.7292 33.7167 29.7292Z" fill="currentColor"/>
</g>
<defs>
<clipPath id="clip0_2141_12317">
<rect width="48" height="48" fill="white"/>
</clipPath>
</defs>
</svg>
