<svg width="24" height="24" viewBox="0 0 24 24" fill="none" xmlns="http://www.w3.org/2000/svg">
<path d="M12 19.8958C11.9167 19.8958 11.8264 19.8889 11.7292 19.875C11.6458 19.8611 11.5625 19.8403 11.4792 19.8125C9.67361 19.1458 8.30556 18.0208 7.375 16.4375C6.45833 14.8542 6 13.1319 6 11.2708V7.5C6 7.19444 6.08333 6.91667 6.25 6.66667C6.41667 6.41667 6.63889 6.23611 6.91667 6.125L11.4167 4.25C11.6111 4.18055 11.8056 4.14583 12 4.14583C12.1944 4.14583 12.3889 4.18055 12.5833 4.25L17.0833 6.125C17.3611 6.23611 17.5833 6.41667 17.75 6.66667C17.9167 6.91667 18 7.19444 18 7.5V11.2708C18 12.0625 17.9097 12.8472 17.7292 13.625C17.5625 14.4028 17.2917 15.1458 16.9167 15.8542L14.5833 13.5208C14.7222 13.2847 14.8264 13.0417 14.8958 12.7917C14.9653 12.5417 15 12.2778 15 12C15 11.1667 14.7083 10.4583 14.125 9.875C13.5417 9.29167 12.8333 9 12 9C11.1667 9 10.4583 9.29167 9.875 9.875C9.29167 10.4583 9 11.1667 9 12C9 12.8333 9.29167 13.5417 9.875 14.125C10.4583 14.7083 11.1667 15 12 15C12.2778 15 12.5417 14.9722 12.7917 14.9167C13.0417 14.8472 13.2847 14.7361 13.5208 14.5833L16.0625 17.125C15.5903 17.75 15.0625 18.2847 14.4792 18.7292C13.9097 19.1736 13.2569 19.5347 12.5208 19.8125C12.4375 19.8403 12.3472 19.8611 12.25 19.875C12.1667 19.8889 12.0833 19.8958 12 19.8958ZM12 13.5C11.5833 13.5 11.2292 13.3542 10.9375 13.0625C10.6458 12.7708 10.5 12.4167 10.5 12C10.5 11.5833 10.6458 11.2292 10.9375 10.9375C11.2292 10.6458 11.5833 10.5 12 10.5C12.4167 10.5 12.7708 10.6458 13.0625 10.9375C13.3542 11.2292 13.5 11.5833 13.5 12C13.5 12.4167 13.3542 12.7708 13.0625 13.0625C12.7708 13.3542 12.4167 13.5 12 13.5Z" fill="currentColor"/>
</svg>
