<svg width="40" height="40" viewBox="0 0 40 40" fill="none" xmlns="http://www.w3.org/2000/svg">
<path d="M10.55 28.025C11.975 27.05 13.4625 26.3 15.0125 25.775C16.5875 25.225 18.25 24.95 20 24.95C21.775 24.95 23.4375 25.225 24.9875 25.775C26.5625 26.3 28.0625 27.05 29.4875 28.025C30.4625 26.85 31.1875 25.6 31.6625 24.275C32.1375 22.925 32.375 21.5 32.375 20C32.375 16.525 31.175 13.6 28.775 11.225C26.4 8.825 23.475 7.625 20 7.625C16.525 7.625 13.5875 8.825 11.1875 11.225C8.8125 13.6 7.625 16.525 7.625 20C7.625 21.5 7.8625 22.925 8.3375 24.275C8.8375 25.6 9.575 26.85 10.55 28.025ZM20 21.3125C18.55 21.3125 17.325 20.8125 16.325 19.8125C15.325 18.8125 14.825 17.575 14.825 16.1C14.825 14.65 15.325 13.425 16.325 12.425C17.325 11.425 18.55 10.925 20 10.925C21.475 10.925 22.7125 11.425 23.7125 12.425C24.7125 13.425 25.2125 14.6625 25.2125 16.1375C25.2125 17.5875 24.7 18.8125 23.675 19.8125C22.675 20.8125 21.45 21.3125 20 21.3125ZM20 35C17.925 35 15.975 34.6125 14.15 33.8375C12.325 33.0375 10.7375 31.9625 9.3875 30.6125C8.0375 29.2375 6.9625 27.65 6.1625 25.85C5.3875 24.025 5 22.075 5 20C5 17.925 5.3875 15.975 6.1625 14.15C6.9625 12.325 8.0375 10.7375 9.3875 9.3875C10.7625 8.0375 12.35 6.975 14.15 6.2C15.975 5.4 17.925 5 20 5C22.075 5 24.025 5.4 25.85 6.2C27.675 6.975 29.2625 8.0375 30.6125 9.3875C31.9625 10.7375 33.025 12.325 33.8 14.15C34.6 15.975 35 17.925 35 20C35 22.075 34.6 24.025 33.8 25.85C33.025 27.65 31.9625 29.2375 30.6125 30.6125C29.2625 31.9625 27.675 33.0375 25.85 33.8375C24.025 34.6125 22.075 35 20 35Z" fill="currentColor"/>
</svg>
