<svg width="24" height="24" viewBox="0 0 24 24" fill="none" xmlns="http://www.w3.org/2000/svg">
<path d="M12 11.9792C11.0556 11.9792 10.2639 11.6597 9.625 11.0208C8.98611 10.3819 8.66667 9.59028 8.66667 8.64583C8.66667 7.70139 8.98611 6.90972 9.625 6.27083C10.2639 5.63194 11.0556 5.3125 12 5.3125C12.9444 5.3125 13.7361 5.63194 14.375 6.27083C15.0139 6.90972 15.3333 7.70139 15.3333 8.64583C15.3333 9.59028 15.0139 10.3819 14.375 11.0208C13.7361 11.6597 12.9444 11.9792 12 11.9792ZM7.02083 18.6667C6.53472 18.6667 6.11806 18.5 5.77083 18.1667C5.4375 17.8194 5.27083 17.4028 5.27083 16.9167V16.2708C5.27083 15.7847 5.39583 15.3472 5.64583 14.9583C5.89583 14.5694 6.22222 14.2778 6.625 14.0833C7.47222 13.6806 8.34722 13.375 9.25 13.1667C10.1667 12.9444 11.0833 12.8333 12 12.8333C12.9167 12.8333 13.8333 12.9444 14.75 13.1667C15.6667 13.375 16.5417 13.6806 17.375 14.0833C17.7778 14.2778 18.1042 14.5694 18.3542 14.9583C18.6042 15.3472 18.7292 15.7847 18.7292 16.2708V16.9167C18.7292 17.4028 18.5556 17.8194 18.2083 18.1667C17.875 18.5 17.4653 18.6667 16.9792 18.6667H7.02083Z" fill="currentColor"/>
</svg>
