<svg width="14" height="14" viewBox="0 0 14 14" fill="none" xmlns="http://www.w3.org/2000/svg">
<path d="M1.19209e-07 5.25V0.749999C1.19209e-07 0.541665 0.0694446 0.368055 0.208334 0.229166C0.361111 0.0763884 0.541667 -4.76837e-07 0.75 -4.76837e-07H5.25C5.45833 -4.76837e-07 5.63194 0.0763884 5.77083 0.229166C5.92361 0.368055 6 0.541665 6 0.749999V5.25C6 5.45833 5.92361 5.63889 5.77083 5.79167C5.63194 5.93056 5.45833 6 5.25 6H0.75C0.541667 6 0.361111 5.93056 0.208334 5.79167C0.0694446 5.63889 1.19209e-07 5.45833 1.19209e-07 5.25ZM1.5 4.5H4.5V1.5H1.5V4.5ZM1.19209e-07 13.25V8.75C1.19209e-07 8.54167 0.0694446 8.36806 0.208334 8.22917C0.361111 8.07639 0.541667 8 0.75 8H5.25C5.45833 8 5.63194 8.07639 5.77083 8.22917C5.92361 8.36806 6 8.54167 6 8.75V13.25C6 13.4583 5.92361 13.6389 5.77083 13.7917C5.63194 13.9306 5.45833 14 5.25 14H0.75C0.541667 14 0.361111 13.9306 0.208334 13.7917C0.0694446 13.6389 1.19209e-07 13.4583 1.19209e-07 13.25ZM1.5 12.5H4.5V9.5H1.5V12.5ZM8 5.25V0.749999C8 0.541665 8.06944 0.368055 8.20833 0.229166C8.36111 0.0763884 8.54167 -4.76837e-07 8.75 -4.76837e-07H13.25C13.4583 -4.76837e-07 13.6319 0.0763884 13.7708 0.229166C13.9236 0.368055 14 0.541665 14 0.749999V5.25C14 5.45833 13.9236 5.63889 13.7708 5.79167C13.6319 5.93056 13.4583 6 13.25 6H8.75C8.54167 6 8.36111 5.93056 8.20833 5.79167C8.06944 5.63889 8 5.45833 8 5.25ZM9.5 4.5H12.5V1.5H9.5V4.5ZM12.5 14V12.5H14V14H12.5ZM8 9.5V8H9.5V9.5H8ZM9.5 11V9.5H11V11H9.5ZM8 12.5V11H9.5V12.5H8ZM9.5 14V12.5H11V14H9.5ZM11 12.5V11H12.5V12.5H11ZM11 9.5V8H12.5V9.5H11ZM12.5 11V9.5H14V11H12.5Z" fill="currentColor"/>
</svg>