<svg width="16" height="16" viewBox="0 0 16 16" fill="none" xmlns="http://www.w3.org/2000/svg">
<g clip-path="url(#clip0_2371_25457)">
<rect width="16" height="16" rx="2" fill="white"/>
<path d="M4.8 5.65V9C4.8 9.16667 4.73889 9.31111 4.61667 9.43333C4.50556 9.54444 4.36667 9.6 4.2 9.6C4.03333 9.6 3.88889 9.54444 3.76667 9.43333C3.65556 9.31111 3.6 9.16667 3.6 9V4.2C3.6 4.03333 3.65556 3.89444 3.76667 3.78333C3.88889 3.66111 4.03333 3.6 4.2 3.6H9C9.16667 3.6 9.30556 3.66111 9.41667 3.78333C9.53889 3.89444 9.6 4.03333 9.6 4.2C9.6 4.36667 9.53889 4.51111 9.41667 4.63333C9.30556 4.74444 9.16667 4.8 9 4.8H5.65L12.3833 11.5333C12.5056 11.6556 12.5667 11.7944 12.5667 11.95C12.5667 12.1056 12.5056 12.2444 12.3833 12.3667C12.2611 12.4889 12.1167 12.55 11.95 12.55C11.7944 12.55 11.6556 12.4889 11.5333 12.3667L4.8 5.65Z" fill="#007A4D"/>
</g>
<defs>
<clipPath id="clip0_2371_25457">
<rect width="16" height="16" rx="2" fill="white"/>
</clipPath>
</defs>
</svg>
