<svg width="48" height="48" viewBox="0 0 48 48" fill="none" xmlns="http://www.w3.org/2000/svg">
<g clip-path="url(#clip0_1590_1741)">
<path d="M19.0958 22.2583H21.25C21.7389 22.2583 22.1514 22.0903 22.4875 21.7542C22.8236 21.4181 22.9917 21.0056 22.9917 20.5167V18.3625C22.9917 17.9042 22.8236 17.5069 22.4875 17.1708C22.1514 16.8347 21.7389 16.6667 21.25 16.6667H18.2708C18.0264 16.6667 17.8125 16.7431 17.6292 16.8958C17.4764 17.0486 17.4 17.2625 17.4 17.5375V25.1458C17.4 25.4208 17.4764 25.6347 17.6292 25.7875C17.8125 25.9403 18.0264 26.0167 18.2708 26.0167C18.5153 26.0167 18.7139 25.9403 18.8667 25.7875C19.0194 25.6042 19.0958 25.3903 19.0958 25.1458V22.2583ZM19.0958 20.5167V18.3625H21.25V20.5167H19.0958ZM28.7667 26.0167C29.2556 26.0167 29.6681 25.8639 30.0042 25.5583C30.3403 25.2222 30.5083 24.8097 30.5083 24.3208V18.3625C30.5083 17.9042 30.3403 17.5069 30.0042 17.1708C29.6681 16.8347 29.2556 16.6667 28.7667 16.6667H25.8333C25.5889 16.6667 25.375 16.7431 25.1917 16.8958C25.0389 17.0486 24.9625 17.2625 24.9625 17.5375V25.1458C24.9625 25.3903 25.0389 25.6042 25.1917 25.7875C25.375 25.9403 25.5889 26.0167 25.8333 26.0167H28.7667ZM26.6583 24.3208V18.3625H28.7667V24.3208H26.6583ZM34.4042 22.2583H35.7792C36.0236 22.2583 36.2222 22.1667 36.375 21.9833C36.5278 21.8 36.6042 21.5861 36.6042 21.3417C36.6042 21.0972 36.5278 20.8986 36.375 20.7458C36.2222 20.5931 36.0236 20.5167 35.7792 20.5167H34.4042V18.3625H35.7792C36.0236 18.3625 36.2222 18.2861 36.375 18.1333C36.5278 17.95 36.6042 17.7361 36.6042 17.4917C36.6042 17.2472 36.5278 17.0486 36.375 16.8958C36.2222 16.7431 36.0236 16.6667 35.7792 16.6667H33.5333C33.3194 16.6667 33.1208 16.7431 32.9375 16.8958C32.7542 17.0486 32.6625 17.2625 32.6625 17.5375V25.1458C32.6625 25.4208 32.7542 25.6347 32.9375 25.7875C33.1208 25.9403 33.3194 26.0167 33.5333 26.0167C33.7778 26.0167 33.9764 25.9403 34.1292 25.7875C34.3125 25.6042 34.4042 25.3903 34.4042 25.1458V22.2583ZM14.375 36.5125C13.6111 36.5125 12.9389 36.2222 12.3583 35.6417C11.7778 35.0611 11.4875 34.3889 11.4875 33.625V8.55416C11.4875 7.79028 11.7778 7.11805 12.3583 6.5375C12.9389 5.95694 13.6111 5.66667 14.375 5.66667H39.4458C40.2097 5.66667 40.8819 5.95694 41.4625 6.5375C42.0431 7.11805 42.3333 7.79028 42.3333 8.55416V33.625C42.3333 34.3889 42.0431 35.0611 41.4625 35.6417C40.8819 36.2222 40.2097 36.5125 39.4458 36.5125H14.375ZM14.375 33.625H39.4458V8.55416H14.375V33.625ZM8.55417 42.3333C7.79028 42.3333 7.11806 42.0431 6.5375 41.4625C5.95694 40.8819 5.66667 40.2097 5.66667 39.4458V12.9083C5.66667 12.5111 5.80417 12.175 6.07917 11.9C6.35417 11.625 6.70556 11.4875 7.13333 11.4875C7.53056 11.4875 7.86667 11.625 8.14167 11.9C8.41667 12.175 8.55417 12.5111 8.55417 12.9083V39.4458H35.0917C35.4889 39.4458 35.825 39.5833 36.1 39.8583C36.375 40.1333 36.5125 40.4694 36.5125 40.8667C36.5125 41.2944 36.375 41.6458 36.1 41.9208C35.825 42.1958 35.4889 42.3333 35.0917 42.3333H8.55417ZM14.375 8.55416V33.625V8.55416Z" fill="currentColor"/>
</g>
<defs>
<clipPath id="clip0_1590_1741">
<rect width="48" height="48" fill="white"/>
</clipPath>
</defs>
</svg>
