<svg width="48" height="48" viewBox="0 0 48 48" fill="none" xmlns="http://www.w3.org/2000/svg">
<g clip-path="url(#clip0_1590_9531)">
<path d="M16.1625 33.2125H25.925C26.3222 33.2125 26.6583 33.075 26.9333 32.8C27.2083 32.525 27.3458 32.1736 27.3458 31.7458C27.3458 31.3181 27.2083 30.9667 26.9333 30.6917C26.6583 30.4167 26.3222 30.2792 25.925 30.2792H16.1625C15.7653 30.2792 15.4292 30.4319 15.1542 30.7375C14.8792 31.0125 14.7417 31.3486 14.7417 31.7458C14.7417 32.1736 14.8792 32.525 15.1542 32.8C15.4292 33.075 15.7653 33.2125 16.1625 33.2125ZM16.1625 25.4667H31.8375C32.2347 25.4667 32.5708 25.3292 32.8458 25.0542C33.1208 24.7486 33.2583 24.3972 33.2583 24C33.2583 23.5722 33.1208 23.2208 32.8458 22.9458C32.5708 22.6708 32.2347 22.5333 31.8375 22.5333H16.1625C15.7653 22.5333 15.4292 22.6861 15.1542 22.9917C14.8792 23.2667 14.7417 23.6028 14.7417 24C14.7417 24.4278 14.8792 24.7792 15.1542 25.0542C15.4292 25.3292 15.7653 25.4667 16.1625 25.4667ZM16.1625 17.7208H31.8375C32.2347 17.7208 32.5708 17.5833 32.8458 17.3083C33.1208 17.0028 33.2583 16.6514 33.2583 16.2542C33.2583 15.8264 33.1208 15.475 32.8458 15.2C32.5708 14.925 32.2347 14.7875 31.8375 14.7875H16.1625C15.7653 14.7875 15.4292 14.925 15.1542 15.2C14.8792 15.475 14.7417 15.8264 14.7417 16.2542C14.7417 16.6819 14.8792 17.0333 15.1542 17.3083C15.4292 17.5833 15.7653 17.7208 16.1625 17.7208ZM10.3875 40.5C9.62361 40.5 8.95139 40.2097 8.37083 39.6292C7.79028 39.0486 7.5 38.3764 7.5 37.6125V10.3875C7.5 9.62361 7.79028 8.95139 8.37083 8.37083C8.95139 7.79028 9.62361 7.5 10.3875 7.5H37.6125C38.3764 7.5 39.0486 7.79028 39.6292 8.37083C40.2097 8.95139 40.5 9.62361 40.5 10.3875V37.6125C40.5 38.3764 40.2097 39.0486 39.6292 39.6292C39.0486 40.2097 38.3764 40.5 37.6125 40.5H10.3875ZM10.3875 37.6125H37.6125V10.3875H10.3875V37.6125ZM10.3875 10.3875V37.6125V10.3875Z" fill="currentColor"/>
</g>
<defs>
<clipPath id="clip0_1590_9531">
<rect width="48" height="48" fill="white"/>
</clipPath>
</defs>
</svg>
