<svg width="48" height="48" viewBox="0 0 48 48" fill="none" xmlns="http://www.w3.org/2000/svg">
<g clip-path="url(#clip0_1590_8382)">
<path d="M27.025 30.2792C27.5139 30.2792 27.9417 30.0958 28.3083 29.7292C28.7056 29.3319 28.9042 28.8736 28.9042 28.3542C28.9042 27.8653 28.7056 27.4375 28.3083 27.0708C27.9417 26.6736 27.5139 26.475 27.025 26.475C26.5056 26.475 26.0625 26.6736 25.6958 27.0708C25.3292 27.4375 25.1458 27.8653 25.1458 28.3542C25.1458 28.8736 25.3292 29.3319 25.6958 29.7292C26.0625 30.0958 26.5056 30.2792 27.025 30.2792ZM26.9792 24.4583C27.2847 24.4583 27.5444 24.3667 27.7583 24.1833C27.9722 23.9694 28.1097 23.6944 28.1708 23.3583C28.2625 22.9 28.4153 22.5028 28.6292 22.1667C28.8736 21.8 29.3014 21.3264 29.9125 20.7458C30.7681 19.8903 31.3486 19.1875 31.6542 18.6375C31.9597 18.0569 32.1125 17.3694 32.1125 16.575C32.1125 15.1694 31.6236 14.0236 30.6458 13.1375C29.6986 12.2514 28.4611 11.8083 26.9333 11.8083C25.925 11.8083 25.0083 12.0375 24.1833 12.4958C23.3583 12.9542 22.7014 13.5958 22.2125 14.4208C22.0597 14.6958 22.0444 14.9708 22.1667 15.2458C22.2889 15.5208 22.5181 15.7347 22.8542 15.8875C23.1292 16.0097 23.4042 16.025 23.6792 15.9333C23.9847 15.8417 24.2292 15.6583 24.4125 15.3833C24.7181 14.8944 25.0694 14.5431 25.4667 14.3292C25.8944 14.1153 26.3681 14.0083 26.8875 14.0083C27.7736 14.0083 28.4917 14.2681 29.0417 14.7875C29.5917 15.2764 29.8667 15.9028 29.8667 16.6667C29.8667 17.2472 29.7292 17.7667 29.4542 18.225C29.2097 18.6528 28.7361 19.1417 28.0333 19.6917C27.1778 20.4556 26.6125 21.0667 26.3375 21.525C26.0931 21.9528 25.9403 22.5639 25.8792 23.3583C25.8486 23.6639 25.9403 23.9236 26.1542 24.1375C26.3681 24.3514 26.6431 24.4583 26.9792 24.4583ZM14.375 36.5125C13.6111 36.5125 12.9389 36.2222 12.3583 35.6417C11.7778 35.0611 11.4875 34.3889 11.4875 33.625V8.55416C11.4875 7.79028 11.7778 7.11805 12.3583 6.5375C12.9389 5.95694 13.6111 5.66667 14.375 5.66667H39.4458C40.2097 5.66667 40.8819 5.95694 41.4625 6.5375C42.0431 7.11805 42.3333 7.79028 42.3333 8.55416V33.625C42.3333 34.3889 42.0431 35.0611 41.4625 35.6417C40.8819 36.2222 40.2097 36.5125 39.4458 36.5125H14.375ZM14.375 33.625H39.4458V8.55416H14.375V33.625ZM8.55417 42.3333C7.79028 42.3333 7.11806 42.0431 6.5375 41.4625C5.95694 40.8819 5.66667 40.2097 5.66667 39.4458V12.9083C5.66667 12.5111 5.80417 12.175 6.07917 11.9C6.35417 11.625 6.70556 11.4875 7.13333 11.4875C7.53056 11.4875 7.86667 11.625 8.14167 11.9C8.41667 12.175 8.55417 12.5111 8.55417 12.9083V39.4458H35.0917C35.4889 39.4458 35.825 39.5833 36.1 39.8583C36.375 40.1333 36.5125 40.4694 36.5125 40.8667C36.5125 41.2944 36.375 41.6458 36.1 41.9208C35.825 42.1958 35.4889 42.3333 35.0917 42.3333H8.55417ZM14.375 8.55416V33.625V8.55416Z" fill="currentColor"/>
</g>
<defs>
<clipPath id="clip0_1590_8382">
<rect width="48" height="48" fill="white"/>
</clipPath>
</defs>
</svg>
