<svg width="38" height="21" viewBox="0 0 38 21" fill="none" xmlns="http://www.w3.org/2000/svg">
<path d="M34.2969 7.65039C34.7656 7.65039 35.1562 7.80664 35.4688 8.19727L37.1875 9.75977C37.8125 10.4629 37.8125 11.4785 37.1875 12.1816L32.8125 16.4785C32.1875 17.1816 31.1719 17.1816 30.4688 16.4785L28.3594 14.3691L26.1719 16.4785C25.5469 17.1816 24.4531 17.1816 23.8281 16.4785L21.6406 14.3691H21.0938C19.6875 18.1973 16.0156 21.0098 11.6406 21.0098C5.46875 21.0098 0.546875 15.3066 1.875 8.82227C2.73438 5.07227 5.78125 1.94727 9.60938 1.24414C14.8438 0.150391 19.5312 3.19727 21.0938 7.65039H34.2969ZM11.6406 16.0098C14.4531 16.0098 16.6406 13.7441 16.6406 11.0098C16.6406 8.27539 14.4531 6.00977 11.6406 6.00977C8.90625 6.00977 6.64062 8.27539 6.64062 11.0098C6.64062 13.7441 8.90625 16.0098 11.6406 16.0098Z" fill="currentColor"/>
</svg>
