<svg width="16" height="16" viewBox="0 0 16 16" fill="none" xmlns="http://www.w3.org/2000/svg">
<g clip-path="url(#clip0_2395_25597)">
<rect width="16" height="16" rx="2" fill="white"/>
<path d="M10.35 11.2L3.61667 4.46667C3.49444 4.34444 3.43333 4.20555 3.43333 4.05C3.44444 3.88333 3.51111 3.73889 3.63333 3.61667C3.75556 3.49444 3.89444 3.43333 4.05 3.43333C4.21667 3.43333 4.36111 3.49444 4.48333 3.61667L11.2 10.35V7C11.2 6.83333 11.2556 6.69444 11.3667 6.58333C11.4889 6.46111 11.6333 6.4 11.8 6.4C11.9667 6.4 12.1056 6.46111 12.2167 6.58333C12.3389 6.69444 12.4 6.83333 12.4 7V11.8C12.4 11.9667 12.3389 12.1111 12.2167 12.2333C12.1056 12.3444 11.9667 12.4 11.8 12.4H7C6.83333 12.4 6.68889 12.3444 6.56667 12.2333C6.45556 12.1111 6.4 11.9667 6.4 11.8C6.4 11.6333 6.45556 11.4944 6.56667 11.3833C6.68889 11.2611 6.83333 11.2 7 11.2H10.35Z" fill="#D31510"/>
</g>
<defs>
<clipPath id="clip0_2395_25597">
<rect width="16" height="16" rx="2" fill="white"/>
</clipPath>
</defs>
</svg>
