<svg width="25" height="25" viewBox="0 0 25 25" fill="none" xmlns="http://www.w3.org/2000/svg">
<path d="M12.5 13.5C12.7833 13.5 13.021 13.404 13.213 13.212C13.4043 13.0207 13.5 12.7833 13.5 12.5V8.475C13.5 8.19167 13.4043 7.95833 13.213 7.775C13.021 7.59167 12.7833 7.5 12.5 7.5C12.2167 7.5 11.9793 7.59567 11.788 7.787C11.596 7.979 11.5 8.21667 11.5 8.5V12.525C11.5 12.8083 11.596 13.0417 11.788 13.225C11.9793 13.4083 12.2167 13.5 12.5 13.5ZM12.5 17.5C12.7833 17.5 13.021 17.404 13.213 17.212C13.4043 17.0207 13.5 16.7833 13.5 16.5C13.5 16.2167 13.4043 15.979 13.213 15.787C13.021 15.5957 12.7833 15.5 12.5 15.5C12.2167 15.5 11.9793 15.5957 11.788 15.787C11.596 15.979 11.5 16.2167 11.5 16.5C11.5 16.7833 11.596 17.0207 11.788 17.212C11.9793 17.404 12.2167 17.5 12.5 17.5ZM12.5 22.5C11.1167 22.5 9.81667 22.2373 8.6 21.712C7.38333 21.1873 6.325 20.475 5.425 19.575C4.525 18.675 3.81267 17.6167 3.288 16.4C2.76267 15.1833 2.5 13.8833 2.5 12.5C2.5 11.1167 2.76267 9.81667 3.288 8.6C3.81267 7.38333 4.525 6.325 5.425 5.425C6.325 4.525 7.38333 3.81233 8.6 3.287C9.81667 2.76233 11.1167 2.5 12.5 2.5C13.8833 2.5 15.1833 2.76233 16.4 3.287C17.6167 3.81233 18.675 4.525 19.575 5.425C20.475 6.325 21.1873 7.38333 21.712 8.6C22.2373 9.81667 22.5 11.1167 22.5 12.5C22.5 13.8833 22.2373 15.1833 21.712 16.4C21.1873 17.6167 20.475 18.675 19.575 19.575C18.675 20.475 17.6167 21.1873 16.4 21.712C15.1833 22.2373 13.8833 22.5 12.5 22.5ZM12.5 20.5C14.7167 20.5 16.6043 19.721 18.163 18.163C19.721 16.6043 20.5 14.7167 20.5 12.5C20.5 10.2833 19.721 8.39567 18.163 6.837C16.6043 5.279 14.7167 4.5 12.5 4.5C10.2833 4.5 8.396 5.279 6.838 6.837C5.27933 8.39567 4.5 10.2833 4.5 12.5C4.5 14.7167 5.27933 16.6043 6.838 18.163C8.396 19.721 10.2833 20.5 12.5 20.5Z" fill="currentColor"/>
</svg>
