<svg width="25" height="25" viewBox="0 0 25 25" fill="none" xmlns="http://www.w3.org/2000/svg">
<path d="M3.2248 21.5C2.84147 21.5 2.55814 21.3333 2.3748 21C2.19147 20.6667 2.19147 20.3333 2.3748 20L11.6248 4C11.8081 3.66667 12.0998 3.5 12.4998 3.5C12.8998 3.5 13.1915 3.66667 13.3748 4L22.6248 20C22.8081 20.3333 22.8081 20.6667 22.6248 21C22.4415 21.3333 22.1581 21.5 21.7748 21.5H3.2248ZM12.4998 10.5C12.2165 10.5 11.9791 10.5957 11.7878 10.787C11.5958 10.979 11.4998 11.2167 11.4998 11.5V14.5C11.4998 14.7833 11.5958 15.0207 11.7878 15.212C11.9791 15.404 12.2165 15.5 12.4998 15.5C12.7831 15.5 13.0208 15.404 13.2128 15.212C13.4041 15.0207 13.4998 14.7833 13.4998 14.5V11.5C13.4998 11.2167 13.4041 10.979 13.2128 10.787C13.0208 10.5957 12.7831 10.5 12.4998 10.5ZM12.4998 18.5C12.7831 18.5 13.0208 18.404 13.2128 18.212C13.4041 18.0207 13.4998 17.7833 13.4998 17.5C13.4998 17.2167 13.4041 16.9793 13.2128 16.788C13.0208 16.596 12.7831 16.5 12.4998 16.5C12.2165 16.5 11.9791 16.596 11.7878 16.788C11.5958 16.9793 11.4998 17.2167 11.4998 17.5C11.4998 17.7833 11.5958 18.0207 11.7878 18.212C11.9791 18.404 12.2165 18.5 12.4998 18.5ZM4.9498 19.5H20.0498L12.4998 6.5L4.9498 19.5Z" fill="currentColor"/>
</svg>
