<svg width="74" height="74" viewBox="0 0 74 74" fill="none" xmlns="http://www.w3.org/2000/svg">
<path d="M31.5917 45.3417L22.6083 36.3583C22.0583 35.8083 21.3861 35.5333 20.5917 35.5333C19.7972 35.5333 19.0944 35.8389 18.4833 36.45C17.9333 37 17.6583 37.6722 17.6583 38.4667C17.6583 39.2611 17.9333 39.9333 18.4833 40.4833L29.6667 51.7583C30.2167 52.3083 30.8583 52.5833 31.5917 52.5833C32.325 52.5833 32.9667 52.3083 33.5167 51.7583L55.425 29.85C56.0361 29.2389 56.3417 28.5361 56.3417 27.7417C56.3417 26.9472 56.0361 26.2444 55.425 25.6333C54.8139 25.0833 54.0806 24.8389 53.225 24.9C52.4306 24.9 51.7583 25.175 51.2083 25.725L31.5917 45.3417ZM37 73.6667C31.9889 73.6667 27.2528 72.7194 22.7917 70.825C18.3306 68.8694 14.4194 66.2417 11.0583 62.9417C7.75833 59.5806 5.13056 55.6694 3.175 51.2083C1.28056 46.7472 0.333334 42.0111 0.333334 37C0.333334 31.9278 1.28056 27.1611 3.175 22.7C5.13056 18.2389 7.75833 14.3583 11.0583 11.0583C14.4194 7.75833 18.3306 5.16111 22.7917 3.26666C27.2528 1.31111 31.9889 0.333332 37 0.333332C42.0722 0.333332 46.8389 1.31111 51.3 3.26666C55.7611 5.16111 59.6417 7.75833 62.9417 11.0583C66.2417 14.3583 68.8389 18.2389 70.7333 22.7C72.6889 27.1611 73.6667 31.9278 73.6667 37C73.6667 42.0111 72.6889 46.7472 70.7333 51.2083C68.8389 55.6694 66.2417 59.5806 62.9417 62.9417C59.6417 66.2417 55.7611 68.8694 51.3 70.825C46.8389 72.7194 42.0722 73.6667 37 73.6667Z" fill="#08875D"/>
</svg>
