<svg width="24" height="24" viewBox="0 0 24 24" fill="none" xmlns="http://www.w3.org/2000/svg">
<path d="M9.75 17H14.25C14.4583 17 14.6319 16.9306 14.7708 16.7917C14.9236 16.6389 15 16.4583 15 16.25C15 16.0417 14.9236 15.8681 14.7708 15.7292C14.6319 15.5764 14.4583 15.5 14.25 15.5H9.75C9.54167 15.5 9.36111 15.5764 9.20833 15.7292C9.06944 15.8681 9 16.0417 9 16.25C9 16.4583 9.06944 16.6389 9.20833 16.7917C9.36111 16.9306 9.54167 17 9.75 17ZM9.75 14H14.25C14.4583 14 14.6319 13.9306 14.7708 13.7917C14.9236 13.6389 15 13.4583 15 13.25C15 13.0417 14.9236 12.8681 14.7708 12.7292C14.6319 12.5764 14.4583 12.5 14.25 12.5H9.75C9.54167 12.5 9.36111 12.5764 9.20833 12.7292C9.06944 12.8681 9 13.0417 9 13.25C9 13.4583 9.06944 13.6389 9.20833 13.7917C9.36111 13.9306 9.54167 14 9.75 14ZM7.5 20C7.08333 20 6.72917 19.8542 6.4375 19.5625C6.14583 19.2708 6 18.9167 6 18.5V5.5C6 5.08333 6.14583 4.72917 6.4375 4.4375C6.72917 4.14583 7.08333 4 7.5 4H13.375C13.5694 4 13.7569 4.03472 13.9375 4.10417C14.1319 4.17361 14.2986 4.28472 14.4375 4.4375L17.5625 7.5625C17.7153 7.70139 17.8264 7.86805 17.8958 8.0625C17.9653 8.24305 18 8.43055 18 8.625V18.5C18 18.9167 17.8542 19.2708 17.5625 19.5625C17.2708 19.8542 16.9167 20 16.5 20H7.5ZM13 8.25C13 8.45833 13.0694 8.63889 13.2083 8.79167C13.3611 8.93055 13.5417 9 13.75 9H16.5L13 5.5V8.25Z" fill="currentColor"/>
</svg>
