<svg width="24" height="24" viewBox="0 0 24 24" fill="none" xmlns="http://www.w3.org/2000/svg">
<path d="M14 18C12.3333 18 10.9167 17.4167 9.75 16.25C8.58333 15.0833 8 13.6667 8 12C8 10.3333 8.58333 8.91667 9.75 7.75C10.9167 6.58333 12.3333 6 14 6C15.6667 6 17.0833 6.58333 18.25 7.75C19.4167 8.91667 20 10.3333 20 12C20 13.6667 19.4167 15.0833 18.25 16.25C17.0833 17.4167 15.6667 18 14 18ZM7.95833 17.6458C6.76389 17.2014 5.80556 16.4653 5.08333 15.4375C4.36111 14.4097 4 13.2639 4 12C4 10.7361 4.35417 9.59028 5.0625 8.5625C5.78472 7.52083 6.75 6.79861 7.95833 6.39583C8.22222 6.3125 8.45833 6.34722 8.66667 6.5C8.88889 6.65278 9 6.86111 9 7.125C9 7.26389 8.96528 7.39583 8.89583 7.52083C8.82639 7.63194 8.72222 7.70833 8.58333 7.75C7.66667 8.05555 6.92361 8.59722 6.35417 9.375C5.78472 10.1528 5.5 11.0278 5.5 12C5.5 12.9583 5.78472 13.8264 6.35417 14.6042C6.92361 15.3819 7.66667 15.9375 8.58333 16.2708C8.70833 16.3264 8.80556 16.4097 8.875 16.5208C8.95833 16.6319 9 16.7569 9 16.8958C9 17.1736 8.88889 17.3958 8.66667 17.5625C8.44444 17.7292 8.20833 17.7569 7.95833 17.6458ZM14 16.5C15.25 16.5 16.3125 16.0625 17.1875 15.1875C18.0625 14.3125 18.5 13.25 18.5 12C18.5 10.75 18.0625 9.6875 17.1875 8.8125C16.3125 7.9375 15.25 7.5 14 7.5C12.75 7.5 11.6875 7.9375 10.8125 8.8125C9.9375 9.6875 9.5 10.75 9.5 12C9.5 13.25 9.9375 14.3125 10.8125 15.1875C11.6875 16.0625 12.75 16.5 14 16.5Z" fill="currentColor"/>
</svg>
