<svg width="224" height="192" viewBox="0 0 224 192" fill="none" xmlns="http://www.w3.org/2000/svg">
<path fill-rule="evenodd" clip-rule="evenodd" d="M32 0.375H212.625C218.493 0.375 223.25 5.13197 223.25 11V21.625C223.25 27.493 218.493 32.25 212.625 32.25H42.625C36.757 32.25 32 37.007 32 42.875V149.125C32 154.993 36.757 159.75 42.625 159.75H180.75C186.618 159.75 191.375 154.993 191.375 149.125V106.625C191.375 100.757 186.618 96 180.75 96H170.125C164.257 96 159.5 100.757 159.5 106.625V117.25C159.5 123.118 154.743 127.875 148.875 127.875H138.25C132.382 127.875 127.625 123.118 127.625 117.25V106.625C127.625 100.757 122.868 96 117 96H106.375C100.507 96 95.75 100.757 95.75 106.625V117.25C95.75 123.118 90.993 127.875 85.125 127.875H74.5C68.632 127.875 63.875 123.118 63.875 117.25V96V74.75C63.875 68.882 68.632 64.125 74.5 64.125H95.75H127.625H159.5H191.375H212.625C218.493 64.125 223.25 68.882 223.25 74.75V96V159.75V181C223.25 186.868 218.493 191.625 212.625 191.625H191.375H32H10.75C4.88198 191.625 0.125 186.868 0.125 181V159.75V32.25V11C0.125 5.13198 4.88197 0.375 10.75 0.375H32Z" fill="currentColor"/>
</svg>
