<svg width="19" height="17" viewBox="0 0 19 17" fill="none" xmlns="http://www.w3.org/2000/svg">
<path d="M13.0208 9.02083L11.75 7.75C11.8056 7.08333 11.5903 6.49306 11.1042 5.97917C10.6181 5.46528 10.0208 5.24306 9.3125 5.3125L8.04167 4.04167C8.27778 3.95833 8.51389 3.89583 8.75 3.85417C9 3.79861 9.25 3.77083 9.5 3.77083C10.5556 3.77083 11.4514 4.13889 12.1875 4.875C12.9236 5.61111 13.2917 6.50694 13.2917 7.5625C13.2917 7.84028 13.2639 8.10417 13.2083 8.35417C13.1667 8.60417 13.1042 8.82639 13.0208 9.02083ZM15.6667 11.6458L14.4167 10.4167C14.9167 10.0278 15.3611 9.60417 15.75 9.14583C16.1389 8.6875 16.4722 8.15972 16.75 7.5625C16.0694 6.17361 15.0833 5.08333 13.7917 4.29167C12.5 3.48611 11.0694 3.08333 9.5 3.08333C9.09722 3.08333 8.72222 3.11111 8.375 3.16667C8.04167 3.20833 7.70833 3.27778 7.375 3.375L6 2C6.56944 1.76389 7.13889 1.59722 7.70833 1.5C8.27778 1.38889 8.875 1.33333 9.5 1.33333C11.4861 1.33333 13.2708 1.85417 14.8542 2.89583C16.4375 3.92361 17.625 5.28472 18.4167 6.97917C18.4444 7.04861 18.4653 7.13889 18.4792 7.25C18.5069 7.34722 18.5208 7.45139 18.5208 7.5625C18.5208 7.67361 18.5069 7.78472 18.4792 7.89583C18.4653 7.99305 18.4444 8.07639 18.4167 8.14583C18.0972 8.84028 17.7014 9.48611 17.2292 10.0833C16.7708 10.6667 16.25 11.1875 15.6667 11.6458ZM15.2917 16.2292L12.4375 13.3958C11.9514 13.5486 11.4653 13.6597 10.9792 13.7292C10.4931 13.7986 10 13.8333 9.5 13.8333C7.51389 13.8333 5.72917 13.3125 4.14583 12.2708C2.5625 11.2153 1.375 9.84028 0.583333 8.14583C0.555556 8.0625 0.527778 7.97222 0.5 7.875C0.486111 7.77778 0.479167 7.67361 0.479167 7.5625C0.479167 7.45139 0.486111 7.34722 0.5 7.25C0.513889 7.13889 0.541667 7.04861 0.583333 6.97917C0.861111 6.38194 1.19444 5.82639 1.58333 5.3125C1.98611 4.78472 2.43056 4.30556 2.91667 3.875L1.25 2.1875C1.08333 2.02083 0.993056 1.81944 0.979167 1.58333C0.979167 1.33333 1.06944 1.125 1.25 0.958332C1.41667 0.791666 1.61806 0.708333 1.85417 0.708333C2.10417 0.708333 2.3125 0.791666 2.47917 0.958332L16.5208 15.0208C16.6875 15.1875 16.7708 15.3889 16.7708 15.625C16.7708 15.8611 16.6875 16.0625 16.5208 16.2292C16.3542 16.3958 16.1458 16.4792 15.8958 16.4792C15.6597 16.4792 15.4583 16.3958 15.2917 16.2292ZM4.10417 5.0625C3.71528 5.42361 3.36111 5.8125 3.04167 6.22917C2.72222 6.63194 2.45139 7.07639 2.22917 7.5625C2.90972 8.95139 3.89583 10.0556 5.1875 10.875C6.47917 11.6806 7.91667 12.0833 9.5 12.0833C9.73611 12.0833 9.97917 12.0764 10.2292 12.0625C10.4931 12.0347 10.7431 11.9931 10.9792 11.9375L10.3125 11.2708C10.1875 11.2986 10.0556 11.3194 9.91667 11.3333C9.77778 11.3472 9.63889 11.3542 9.5 11.3542C8.44444 11.3542 7.54861 10.9861 6.8125 10.25C6.07639 9.51389 5.70833 8.61806 5.70833 7.5625C5.70833 7.42361 5.71528 7.29167 5.72917 7.16667C5.75694 7.04167 5.78472 6.90972 5.8125 6.77083L4.10417 5.0625Z" fill="currentColor"/>
</svg>
