<svg width="22" height="24" viewBox="0 0 22 24" fill="none" xmlns="http://www.w3.org/2000/svg">
<path d="M5.75 5.5H17.25C17.6562 5.5 18 5.84375 18 6.25C18 6.6875 17.6562 7 17.25 7H5.75C5.03125 7 4.5 7.5625 4.5 8.25V16.75C4.5 17.4688 5.03125 18 5.75 18H16.25C16.9375 18 17.5 17.4688 17.5 16.75V11.25C17.5 10.5625 16.9375 10 16.25 10H6.75C6.3125 10 6 9.6875 6 9.25C6 8.84375 6.3125 8.5 6.75 8.5H16.25C17.75 8.5 19 9.75 19 11.25V16.75C19 18.2812 17.75 19.5 16.25 19.5H5.75C4.21875 19.5 3 18.2812 3 16.75V8.25C3 6.75 4.21875 5.5 5.75 5.5ZM15 15C14.4375 15 14 14.5625 14 14C14 13.4688 14.4375 13 15 13C15.5312 13 16 13.4688 16 14C16 14.5625 15.5312 15 15 15Z" fill="currentColor" fill-opacity="0.56"/>
</svg>
